<svg width="29" height="29" viewBox="0 0 29 29" fill="none" xmlns="http://www.w3.org/2000/svg">
<g clip-path="url(#clip0_7_272)">
<path d="M23.9679 4.98718C18.5569 -0.423706 9.75309 -0.423706 4.3422 4.98718C-1.06858 10.398 -1.06858 19.202 4.3422 24.6128C7.04765 27.3182 10.6014 28.671 14.1551 28.671C17.7088 28.671 21.2625 27.3182 23.968 24.6128C29.3787 19.202 29.3787 10.398 23.9679 4.98718ZM5.74405 23.2111C1.10622 18.5732 1.10622 11.0269 5.74405 6.38903C8.06302 4.07017 11.109 2.91063 14.155 2.91063C17.201 2.91063 20.2471 4.07006 22.566 6.38903C27.2038 11.0269 27.2038 18.5732 22.566 23.2111C17.9281 27.8488 10.3819 27.8488 5.74405 23.2111Z" fill="#2877EE"/>
<path d="M21.7414 13.8087H15.1461V7.21342C15.1461 6.66592 14.7023 6.22217 14.1548 6.22217C13.6073 6.22217 13.1636 6.66592 13.1636 7.21342V13.8087H6.56827C6.02077 13.8087 5.57703 14.2525 5.57703 14.8C5.57703 15.3475 6.02077 15.7912 6.56827 15.7912H13.1636V22.3866C13.1636 22.9341 13.6073 23.3778 14.1548 23.3778C14.7023 23.3778 15.1461 22.9341 15.1461 22.3866V15.7912H21.7414C22.2889 15.7912 22.7327 15.3475 22.7327 14.8C22.7327 14.2525 22.2889 13.8087 21.7414 13.8087Z" fill="#2877EE"/>
</g>
<defs>
<clipPath id="clip0_7_272">
<rect width="27.7419" height="27.7419" fill="white" transform="translate(0.283875 0.929016)"/>
</clipPath>
</defs>
</svg>
