<svg width="42" height="42" viewBox="0 0 42 42" fill="none" xmlns="http://www.w3.org/2000/svg">
<g id="beauty-icon">
<g id="Group 7">
<g id="beauty-girl-svgrepo-com 1">
<path id="Vector" d="M18.1436 35.3947C25.3933 35.3947 31.2703 29.5177 31.2703 22.268C31.2703 15.0184 25.3933 9.14139 18.1436 9.14139C10.894 9.14139 5.017 15.0184 5.017 22.268C5.017 29.5177 10.894 35.3947 18.1436 35.3947Z" fill="#FF9690"/>
<path id="Vector_2" d="M18.1436 31.8347C23.4272 31.8347 27.7103 27.5516 27.7103 22.268C27.7103 16.9845 23.4272 12.7013 18.1436 12.7013C12.8601 12.7013 8.57695 16.9845 8.57695 22.268C8.57695 27.5516 12.8601 31.8347 18.1436 31.8347Z" fill="#FD3B6D"/>
<path id="Vector_3" d="M5.017 9.14139H31.2703C31.2703 -1.86398 5.017 -1.86398 5.017 9.14139Z" fill="#FC7576"/>
<path id="Vector_4" d="M27.4268 41.1179C22.1499 41.1179 17.8601 36.8281 17.8601 31.5512C17.8601 26.2743 22.1499 21.9792 27.4268 21.9792C32.7037 21.9792 36.9935 26.269 36.9935 31.5459C36.9935 36.8229 32.7037 41.1179 27.4268 41.1179Z" fill="#FFD37D"/>
<g id="Group">
<path id="Vector_5" d="M12.998 22.7931C12.5202 22.7931 12.1369 23.1764 12.1369 23.6542C12.1369 24.132 12.5202 24.5153 12.998 24.5153C13.4758 24.5153 13.8591 24.132 13.8591 23.6542C13.8696 23.1869 13.4811 22.7931 12.998 22.7931Z" fill="#000030"/>
<path id="Vector_6" d="M16.0014 26.7678C16.477 26.7678 16.8625 26.3823 16.8625 25.9067C16.8625 25.4312 16.477 25.0456 16.0014 25.0456C15.5258 25.0456 15.1403 25.4312 15.1403 25.9067C15.1403 26.3823 15.5258 26.7678 16.0014 26.7678Z" fill="#000030"/>
<path id="Vector_7" d="M32.1629 22.226C32.1471 16.9911 29.2488 12.4231 24.9747 10.0288H31.2755C31.7691 10.0288 32.1629 9.62445 32.1629 9.14139C32.1629 6.25353 30.5877 3.84348 27.6001 2.17377C25.0903 0.771847 21.7351 0 18.1436 0C14.5522 0 11.1918 0.771847 8.68196 2.17377C5.70484 3.83823 4.11914 6.25353 4.11914 9.14139C4.11914 9.63495 4.52344 10.0288 5.0065 10.0288H11.3073C7.02275 12.4336 4.11914 17.0121 4.11914 22.268C4.11914 29.9812 10.3884 36.2663 18.1016 36.282C19.8344 39.6792 23.3628 42 27.4216 42C33.1868 42 37.8809 37.3059 37.8809 31.5407C37.8809 27.4819 35.5496 23.9587 32.1629 22.226ZM5.97787 8.25403C6.34542 5.991 8.07814 4.56282 9.55357 3.73322C11.7693 2.49406 14.904 1.77997 18.1436 1.77997C21.3833 1.77997 24.5179 2.49406 26.7337 3.73322C28.2091 4.56282 29.9419 5.991 30.3094 8.25403H5.97787ZM5.90961 22.268C5.90961 15.5262 11.3965 10.0288 18.1489 10.0288C24.6387 10.0288 29.9734 15.1166 30.3672 21.5067C29.7843 21.3334 29.1753 21.2127 28.5557 21.1444C28.3037 18.7238 27.2115 16.4818 25.4473 14.7701C23.4678 12.8641 20.8845 11.814 18.1436 11.814C12.3784 11.814 7.68434 16.5081 7.68434 22.2733C7.68434 25.0036 8.73447 27.5974 10.6457 29.5612C12.3627 31.3254 14.5994 32.4176 17.02 32.6696C17.0883 33.2944 17.209 33.8982 17.3823 34.4811C10.987 34.0873 5.90961 28.7631 5.90961 22.268ZM16.9938 30.8634C12.767 30.291 9.46956 26.6051 9.46956 22.268C9.46956 17.4847 13.3603 13.5887 18.1489 13.5887C22.4964 13.5887 26.1719 16.8861 26.7442 21.1129C21.5198 21.4542 17.3298 25.6442 16.9938 30.8634ZM27.4268 40.2253C23.8721 40.2253 20.8215 38.083 19.4773 35.0219C19.4773 35.0114 19.4668 35.0061 19.4668 34.9956C19.0048 33.935 18.7527 32.7746 18.7527 31.5512C18.7527 26.7678 22.6435 22.8719 27.4321 22.8719C28.6607 22.8719 29.8264 23.1239 30.887 23.5964C33.9534 24.9354 36.1061 27.9965 36.1061 31.5564C36.1009 36.3345 32.2101 40.2253 27.4268 40.2253Z" fill="#000030"/>
</g>
</g>
</g>
</g>
</svg>
