<svg width="42" height="42" viewBox="0 0 42 42" fill="none" xmlns="http://www.w3.org/2000/svg">
<g id="book-icon">
<g id="book-svgrepo-com 1">
<g id="XMLID_982_">
<path id="XMLID_983_" d="M42 2.72218H23.3333L21 3.88885L18.6667 2.72218H0V36.5555H16.0735C17.1104 38.1879 18.9336 39.2777 21 39.2777C23.0664 39.2777 24.8896 38.1878 25.9265 36.5555H42V2.72218Z" fill="#00D7DF"/>
<path id="XMLID_984_" d="M23.3333 2.72218L21.1458 3.81593V39.2729C23.1517 39.2228 24.914 38.1492 25.9265 36.5555H42V2.72218H23.3333Z" fill="#00969B"/>
<path id="XMLID_985_" d="M4.66667 31.8888V7.38885H17.565L21 9.10641L24.435 7.38885H37.3333V31.8888H4.66667Z" fill="#FFEB99"/>
<path id="XMLID_986_" d="M24.435 7.38885L21.1458 9.0335V31.8888H37.3333V7.38885H24.435Z" fill="#FFE477"/>
<path id="XMLID_37_" d="M16.9167 12.0555H7.58333V14.3889H16.9167V12.0555Z" fill="#FFDA44"/>
<path id="XMLID_36_" d="M16.9167 18.4722H7.58333V20.8055H16.9167V18.4722Z" fill="#FFDA44"/>
<path id="XMLID_35_" d="M16.9167 24.8888H7.58333V27.2222H16.9167V24.8888Z" fill="#FFDA44"/>
<path id="XMLID_34_" d="M34.4167 12.0555H25.0833V14.3889H34.4167V12.0555Z" fill="#FFCD00"/>
<path id="XMLID_33_" d="M34.4167 18.4722H25.0833V20.8055H34.4167V18.4722Z" fill="#FFCD00"/>
<path id="XMLID_32_" d="M34.4167 24.8888H25.0833V27.2222H34.4167V24.8888Z" fill="#FFCD00"/>
<path id="XMLID_3_" d="M29.1667 7H34.7839V17.5L31.9753 16.3333L29.1667 17.5V7Z" fill="#00969B"/>
</g>
</g>
</g>
</svg>
