<svg width="42" height="42" viewBox="0 0 42 42" fill="none" xmlns="http://www.w3.org/2000/svg">
<g clip-path="url(#clip0_5_782)">
<path d="M39.383 17.0609H2.61679V29.5355H39.383V17.0609Z" fill="#E30613"/>
<path d="M33.4743 4.58654H8.52578L6.55612 17.0607H35.4439L33.4743 4.58654Z" fill="#86CBED"/>
<path d="M34.1313 2.6168H7.86935V4.58637H34.1313V2.6168Z" fill="#E30613"/>
<path d="M39.383 13.7779C40.4708 13.7779 41.3526 12.8961 41.3526 11.8083C41.3526 10.7206 40.4708 9.83876 39.383 9.83876C38.2953 9.83876 37.4135 10.7206 37.4135 11.8083C37.4135 12.8961 38.2953 13.7779 39.383 13.7779Z" fill="#E30613"/>
<path d="M2.61679 13.7779C3.70456 13.7779 4.58637 12.8961 4.58637 11.8083C4.58637 10.7206 3.70456 9.83876 2.61679 9.83876C1.52903 9.83876 0.647217 10.7206 0.647217 11.8083C0.647217 12.8961 1.52903 13.7779 2.61679 13.7779Z" fill="#E30613"/>
<path d="M8.52527 32.8177H2.61679V39.383H8.52527V32.8177Z" fill="#575756"/>
<path d="M39.383 32.8177H33.4745V39.383H39.383V32.8177Z" fill="#575756"/>
<path d="M41.3525 29.0729H0.647308V32.8177H41.3525V29.0729Z" fill="#CBBBA0"/>
<path d="M24.9398 31.5051H17.0609V35.4443H24.9398V31.5051Z" fill="white"/>
<path d="M8.5261 20.3431H5.24304V25.5954H8.5261V20.3431Z" fill="#F9B233"/>
<path d="M36.7576 20.3431H33.4745V25.5954H36.7576V20.3431Z" fill="#F9B233"/>
<path d="M15.7482 20.3431H8.52618V25.5954H15.7482V20.3431Z" fill="white"/>
<path d="M33.4745 20.3431H26.2525V25.5954H33.4745V20.3431Z" fill="white"/>
<path d="M30.1915 28.2314H11.8083V29.5261H30.1915V28.2314Z" fill="#1D1D1B"/>
<path d="M24.283 24.9484H17.7177V26.243H24.283V24.9484Z" fill="white"/>
<path d="M24.283 22.3221H17.7177V23.6168H24.283V22.3221Z" fill="white"/>
<path d="M24.283 19.6958H17.7177V20.9904H24.283V19.6958Z" fill="white"/>
<path d="M34.1313 1.96957H7.86935V3.26419H34.1313V1.96957Z" fill="#1D1D1B"/>
<path d="M32.152 15.7477H30.8573C30.8573 14.2945 29.6751 13.1122 28.2219 13.1122C26.7687 13.1122 25.5865 14.2945 25.5865 15.7477H24.292C24.292 13.5806 26.0549 11.8176 28.222 11.8176C30.3891 11.8176 32.152 13.5806 32.152 15.7477Z" fill="#1D1D1B"/>
<path d="M1.29462 29.5258H9.18235V28.2312H0V33.465H1.96957V40.0304H9.173V33.465H15.7477V32.1704H1.29462V29.5258ZM7.87854 38.7358H3.26419V33.465H7.87846V38.7358H7.87854Z" fill="#1D1D1B"/>
<path d="M32.8177 29.5258H40.7055V32.1705H26.2523V33.4651H32.8269V40.0305H40.0303V33.4651H41.9999V28.2313H32.8177V29.5258ZM38.7358 38.7358H34.1215V33.465H38.7358V38.7358Z" fill="#1D1D1B"/>
<path d="M4.59583 26.2431H16.3951V19.6962H4.59583V26.2431ZM15.1004 24.9485H9.17301V20.9908H15.1004V24.9485ZM5.89036 20.9908H7.87848V24.9485H5.89036V20.9908Z" fill="#1D1D1B"/>
<path d="M37.4043 19.6962H25.605V26.2431H37.4043V19.6962ZM26.8996 20.9908H32.827V24.9485H26.8996V20.9908ZM36.1097 24.9485H34.1216V20.9908H36.1097V24.9485Z" fill="#1D1D1B"/>
<path d="M2.61688 14.4254C3.38404 14.4254 4.07507 14.0936 4.55422 13.5659L5.62211 16.4135H1.96957V27.5654H3.26419V17.708H38.7359V27.5653H40.0305V16.4134H36.378L37.4459 13.5658C37.9249 14.0935 38.6161 14.4253 39.3832 14.4253C40.8261 14.4253 42.0001 13.2514 42.0001 11.8084C42.0001 10.3655 40.8263 9.19154 39.3833 9.19154C38.2885 9.19154 37.3491 9.86756 36.9592 10.824L36.9588 10.8237L36.9552 10.8342C36.9264 10.9057 36.9004 10.9785 36.878 11.0529L35.6847 14.4344L34.0276 3.93932H7.97263L6.31552 14.4347L5.12385 11.0587C5.09998 10.979 5.07225 10.9009 5.04116 10.8245L5.04091 10.8237C4.65102 9.86764 3.71159 9.19171 2.61697 9.19171C1.17395 9.19154 0 10.3655 0 11.8084C0 13.2514 1.17395 14.4254 2.61688 14.4254ZM39.3831 10.4862C40.1122 10.4862 40.7054 11.0793 40.7054 11.8084C40.7054 12.5375 40.1122 13.1307 39.3831 13.1307C38.654 13.1307 38.0609 12.5376 38.0609 11.8084C38.0609 11.0792 38.654 10.4862 39.3831 10.4862ZM9.07883 5.23385H20.3526V6.56547H19.0304V7.86009H22.9696V6.56547H21.6474V5.23385H32.9212L34.6864 16.4136H7.31367L9.07883 5.23385ZM2.61688 10.4862C3.34598 10.4862 3.93915 11.0793 3.93915 11.8084C3.93915 12.5375 3.34598 13.1307 2.61688 13.1307C1.88779 13.1307 1.29462 12.5376 1.29462 11.8084C1.29462 11.0792 1.88779 10.4862 2.61688 10.4862Z" fill="#1D1D1B"/>
<path d="M10.0381 11.3506L10.9534 12.266L13.9077 9.31168L12.9923 8.39631L10.0381 11.3506Z" fill="white"/>
<path d="M10.6945 13.9775L11.6098 14.8929L17.5184 8.98432L16.603 8.06896L10.6945 13.9775Z" fill="white"/>
<path d="M14.6333 13.3204L15.5487 14.2358L16.8617 12.9227L15.9464 12.0074L14.6333 13.3204Z" fill="white"/>
<path d="M11.143 27.5652H9.84836V30.1914H11.143V27.5652Z" fill="#1D1D1B"/>
<path d="M32.1524 27.5652H30.8578V30.1914H32.1524V27.5652Z" fill="#1D1D1B"/>
<path d="M25.5865 36.0912H16.4134V30.8573H25.5865V36.0912ZM17.708 34.7966H24.292V32.1519H17.708V34.7966Z" fill="#1D1D1B"/>
<path d="M19.6867 32.8272H18.3736V34.1219H19.6867V32.8272Z" fill="#1D1D1B"/>
<path d="M21.6562 32.8272H20.3431V34.1219H21.6562V32.8272Z" fill="#1D1D1B"/>
<path d="M23.6265 32.8272H22.3134V34.1219H23.6265V32.8272Z" fill="#1D1D1B"/>
</g>
<defs>
<clipPath id="clip0_5_782">
<rect width="42" height="42" fill="white"/>
</clipPath>
</defs>
</svg>
