<svg width="33" height="33" viewBox="0 0 33 33" fill="none" xmlns="http://www.w3.org/2000/svg">
<g clip-path="url(#clip0_7_266)">
<path d="M23.2758 1.37689C20.5363 1.37689 17.9719 2.61723 16.2645 4.69539C14.5571 2.61716 11.9928 1.37689 9.25324 1.37689C4.24706 1.37689 0.174194 5.44969 0.174194 10.4559C0.174194 14.376 2.51171 18.9102 7.12168 23.9326C10.6694 27.7976 14.5287 30.7902 15.6271 31.6154L16.2643 32.0941L16.9016 31.6154C17.9999 30.7903 21.8594 27.7978 25.4071 23.9328C30.0173 18.9104 32.3548 14.3761 32.3548 10.4559C32.3548 5.44969 28.282 1.37689 23.2758 1.37689ZM23.844 22.4979C20.9259 25.6769 17.7864 28.2467 16.2643 29.4311C14.7423 28.2467 11.6029 25.6768 8.68481 22.4978C4.50521 17.9443 2.296 13.7803 2.296 10.4559C2.296 6.61972 5.41702 3.49869 9.25324 3.49869C11.7778 3.49869 14.1088 4.87461 15.3367 7.08956L16.2645 8.76337L17.1924 7.08956C18.4202 4.87468 20.7512 3.49869 23.2758 3.49869C27.112 3.49869 30.233 6.61965 30.233 10.4559C30.233 13.7804 28.0237 17.9445 23.844 22.4979Z" fill="#5F94B7"/>
</g>
<defs>
<clipPath id="clip0_7_266">
<rect width="32.1806" height="32.1806" fill="white" transform="translate(0.174194 0.645142)"/>
</clipPath>
</defs>
</svg>
