<svg width="42" height="42" viewBox="0 0 42 42" fill="none" xmlns="http://www.w3.org/2000/svg">
<g id="furniture-icon">
<g id="furniture-svgrepo-com 2" clip-path="url(#clip0_7_464)">
<g id="Group">
<path id="Vector" d="M35 31.1983V33.2493C35 34.2158 34.2165 34.9993 33.2501 34.9993C32.2836 34.9993 31.5 34.2157 31.5 33.2493V31.1983C32.1519 30.967 32.7448 30.611 33.25 30.1582C33.7552 30.611 34.348 30.967 35 31.1983Z" fill="#806749"/>
<path id="Vector_2" d="M8.75003 30.1582C9.25517 30.611 9.8481 30.967 10.5 31.1983V33.2493C10.5 34.2158 9.71644 34.9993 8.75003 34.9993C7.78362 34.9993 7.00005 34.2157 7.00005 33.2493V31.1983C7.65196 30.967 8.2448 30.611 8.75003 30.1582Z" fill="#806749"/>
</g>
<path id="Vector_3" d="M30.0531 7.0007C32.7809 7.0007 35 8.9802 35 11.4132V16.6336C33.047 17.3264 31.6216 19.1432 31.5076 21.3028C30.9577 21.1069 30.3664 20.9993 29.75 20.9993H21V7.0007H30.0531Z" fill="#FFB655"/>
<g id="Group_2">
<path id="Vector_4" d="M10.199 27.9993C10.3933 27.4516 10.5 26.8628 10.5 26.2494V21.5827C10.5 21.4889 10.4973 21.3956 10.4925 21.303C11.0424 21.107 11.6337 20.9994 12.2501 20.9994H21V27.9993V31.4994H12.25C11.6365 31.4994 11.0477 31.3926 10.5 31.1984C9.8481 30.9671 9.25518 30.6111 8.75003 30.1583C9.39882 29.5768 9.90208 28.8365 10.199 27.9993Z" fill="#FF5023"/>
<path id="Vector_5" d="M35 16.6336C35.5478 16.4394 36.1365 16.3327 36.75 16.3327C39.645 16.3327 42 18.6878 42 21.5827V26.2493C42 29.1442 39.645 31.4993 36.75 31.4993C36.1365 31.4993 35.5478 31.3926 35 31.1984C34.3481 30.9671 33.7552 30.6111 33.2501 30.1583C32.6014 29.5769 32.098 28.8366 31.8011 27.9994C31.6068 27.4517 31.5001 26.8629 31.5001 26.2494V21.5828C31.5001 21.489 31.5028 21.3956 31.5076 21.303C31.6216 19.1432 33.047 17.3264 35 16.6336Z" fill="#FF5023"/>
</g>
<path id="Vector_6" d="M31.5075 21.3029C31.5026 21.3955 31.5 21.4888 31.5 21.5826V26.2493C31.5 26.8627 31.6067 27.4515 31.801 27.9992C32.0979 28.8364 32.6012 29.5767 33.25 30.1581C32.7448 30.6109 32.1519 30.967 31.5 31.1982C30.9523 31.3925 30.3635 31.4992 29.75 31.4992H21V27.9991V20.9992H29.75C30.3663 20.9993 30.9577 21.107 31.5075 21.3029Z" fill="#FF6243"/>
<path id="Vector_7" d="M5.25 16.3327C5.86351 16.3327 6.45225 16.4394 6.99997 16.6336V11.4132C6.99997 8.9802 9.21933 7.0007 11.9471 7.0007H21V20.9993H12.25C11.6336 20.9993 11.0422 21.1069 10.4924 21.3029C10.4973 21.3955 10.4999 21.4889 10.4999 21.5827V26.2493C10.4999 26.8628 10.3932 27.4516 10.1989 27.9993C9.90199 28.8365 9.39873 29.5768 8.74995 30.1582C8.2448 30.611 7.65188 30.967 6.99997 31.1983C6.45225 31.3925 5.86351 31.4993 5.25 31.4993C2.35512 31.4993 0 29.1441 0 26.2493V21.5826C0 18.6878 2.35512 16.3327 5.25 16.3327Z" fill="#EE8700"/>
</g>
</g>
<defs>
<clipPath id="clip0_7_464">
<rect width="42" height="42" fill="white"/>
</clipPath>
</defs>
</svg>
