<svg width="42" height="42" viewBox="0 0 42 42" fill="none" xmlns="http://www.w3.org/2000/svg">
<g id="interior-icon">
<g id="lamp-svgrepo-com 2" clip-path="url(#clip0_7_438)">
<g id="Group">
<path id="Vector" d="M25.219 3.00503C25.219 4.28581 25.219 5.33355 25.219 5.33355H16.781C16.781 5.33355 16.781 4.28581 16.781 3.00503C16.781 1.72516 17.7303 0.677422 18.891 0.677422H23.109C24.2697 0.677422 25.219 1.72516 25.219 3.00503Z" fill="#1895C2"/>
<path id="Vector_2" d="M25.9849 8.04323H16.0151V14.6639H25.9849V8.04323Z" fill="#F0E6D1"/>
<path id="Vector_3" d="M25.9849 5.33355H16.0151V8.04323H25.9849V5.33355Z" fill="#6ECDFB"/>
<path id="Vector_4" d="M25.9849 14.6639H16.0151C9.87045 16.7413 5.44736 22.5545 5.44736 29.4009H36.5526C36.5526 22.5545 32.1296 16.7413 25.9849 14.6639Z" fill="#CFC8AB"/>
<path id="Vector_5" d="M32.9343 29.4009V29.549C32.9343 31.7475 28.5112 33.721 21 33.721C13.4888 33.721 9.06567 31.7475 9.06567 29.549V29.4009H32.9343Z" fill="#FFD608"/>
<path id="Vector_6" d="M37.6739 28.7233H37.2161C36.9461 22.1971 32.7927 16.4645 26.6625 14.1855V8.59763C26.8368 8.47506 26.951 8.27283 26.951 8.0435C26.951 7.66929 26.6478 7.36608 26.2736 7.36608H15.7263C15.3521 7.36608 15.0489 7.66929 15.0489 8.0435C15.0489 8.27283 15.1631 8.47506 15.3374 8.59763V14.1855C9.20722 16.4645 5.05383 22.1971 4.78385 28.7233H4.32601C3.9518 28.7233 3.64859 29.0265 3.64859 29.4007C3.64859 29.7749 3.9518 30.0781 4.32601 30.0781H8.44924C8.72752 31.2772 9.95582 32.3339 11.978 33.0937C14.2501 33.9475 17.3699 34.3987 21 34.3987C24.6302 34.3987 27.7498 33.9475 30.0221 33.0937C32.0442 32.3339 33.2725 31.2773 33.5508 30.0781H37.674C38.0482 30.0781 38.3514 29.7749 38.3514 29.4007C38.3514 29.0265 38.0481 28.7233 37.6739 28.7233ZM16.1296 15.3413H21.4681C21.8423 15.3413 22.1455 15.0381 22.1455 14.6639C22.1455 14.2897 21.8423 13.9865 21.4681 13.9865H16.6923V8.72092H25.3078V13.9865H24.1783C23.8041 13.9865 23.5009 14.2897 23.5009 14.6639C23.5009 15.0381 23.8041 15.3413 24.1783 15.3413H25.8705C31.6455 17.3408 35.5858 22.6526 35.8598 28.7233H6.14023C6.41436 22.6526 10.3546 17.3408 16.1296 15.3413ZM29.5454 31.8254C28.0661 32.3813 25.3827 33.0439 21 33.0439C16.6173 33.0439 13.9339 32.3813 12.4546 31.8254C11.1325 31.3287 10.2255 30.7027 9.8888 30.0781H32.1112C31.7745 30.7027 30.8675 31.3287 29.5454 31.8254Z" fill="#591200"/>
<path id="Vector_7" d="M15.7263 6.01061H26.2736C26.6478 6.01061 26.951 5.70739 26.951 5.33319C26.951 4.95898 26.6478 4.65577 26.2736 4.65577H25.8962V3.0053C25.8963 1.34825 24.6461 0 23.1094 0H18.8905C17.3538 0 16.1037 1.34825 16.1037 3.0053V4.65568H15.7263C15.3521 4.65568 15.0489 4.95889 15.0489 5.3331C15.0489 5.7073 15.3522 6.01061 15.7263 6.01061ZM17.4585 3.0053C17.4585 2.09521 18.1009 1.35484 18.8905 1.35484H23.1094C23.899 1.35484 24.5414 2.09521 24.5414 3.0053V4.65568H17.4585V3.0053H17.4585Z" fill="#591200"/>
<path id="Vector_8" d="M21 42C20.6258 42 20.3226 41.6968 20.3226 41.3226V36.5713C20.3226 36.1971 20.6258 35.8939 21 35.8939C21.3742 35.8939 21.6774 36.1971 21.6774 36.5713V41.3226C21.6774 41.6968 21.3742 42 21 42Z" fill="#FFE76D"/>
<path id="Vector_9" d="M12.9824 41.2367C12.8944 41.2367 12.8051 41.2195 12.7191 41.1831C12.3745 41.0375 12.2131 40.6401 12.3587 40.2955L14.2471 35.8246C14.3928 35.4798 14.7905 35.3187 15.1347 35.4641C15.4794 35.6097 15.6408 36.0071 15.4952 36.3517L13.6067 40.8226C13.4975 41.0812 13.2465 41.2367 12.9824 41.2367Z" fill="#FFE76D"/>
<path id="Vector_10" d="M29.0176 41.2369C28.7535 41.2369 28.5025 41.0814 28.3933 40.8228L26.5048 36.3518C26.3593 36.0072 26.5206 35.6098 26.8653 35.4642C27.2095 35.3187 27.6072 35.48 27.7529 35.8246L29.6413 40.2957C29.7868 40.6403 29.6255 41.0377 29.2809 41.1833C29.1949 41.2196 29.1055 41.2369 29.0176 41.2369Z" fill="#FFE76D"/>
</g>
</g>
</g>
<defs>
<clipPath id="clip0_7_438">
<rect width="42" height="42" fill="white"/>
</clipPath>
</defs>
</svg>
