<svg width="42" height="42" viewBox="0 0 42 42" fill="none" xmlns="http://www.w3.org/2000/svg">
<g id="jewerly-icon">
<g id="bracelet-svgrepo-com 1">
<g id="Group">
<path id="Vector" d="M33.9437 32.5653C32.4382 31.591 32.0032 29.5739 32.9719 28.0597C33.9404 26.5457 35.946 26.1082 37.4514 27.0824C38.9566 28.0566 39.3919 30.0739 38.4231 31.5878C37.4546 33.1019 35.4491 33.5394 33.9437 32.5653Z" fill="#53E7D3"/>
<path id="Vector_2" d="M21.9458 38.1656C21.5401 36.4119 22.6245 34.6596 24.3678 34.2514C26.1112 33.8432 27.8534 34.934 28.2593 36.6877C28.665 38.4412 27.5807 40.1937 25.8371 40.6016C24.0939 41.0099 22.3518 39.919 21.9458 38.1656Z" fill="#53E7D3"/>
</g>
<path id="Vector_3" opacity="0.1" d="M6.45271 32.9791C5.37826 31.5392 5.66775 29.4958 7.09911 28.4148C7.42896 28.1658 7.79079 27.9905 8.16535 27.8844C7.22724 27.6196 6.18159 27.781 5.34201 28.4148C3.91065 29.4958 3.62116 31.5392 4.6956 32.9791C5.52256 34.0872 6.91618 34.5139 8.16707 34.1596C7.50541 33.9729 6.89715 33.5745 6.45271 32.9791Z" fill="black"/>
<path id="Vector_4" opacity="0.1" d="M2.9851 25.8722C2.53147 24.1481 3.54004 22.3817 5.24103 21.9006C4.70086 21.7467 4.11417 21.7315 3.532 21.8865C1.80156 22.3475 0.77002 24.1317 1.228 25.8722C1.68598 27.6128 3.46014 28.6502 5.1905 28.1894C5.20658 28.1852 5.22241 28.1799 5.23841 28.1754C4.17266 27.8719 3.28903 27.0272 2.9851 25.8722Z" fill="black"/>
<g id="Group_2">
<path id="Vector_5" d="M32.6353 3.37852C31.1598 2.3592 29.1422 2.73605 28.1286 4.22016C27.1152 5.70434 27.4898 7.73371 28.9653 8.7531C30.4409 9.77242 32.4585 9.39557 33.4719 7.91155C34.4854 6.42736 34.1108 4.398 32.6353 3.37852Z" fill="#8F5DAF"/>
<path id="Vector_6" d="M38.7168 20.4112C36.9579 20.0771 35.2629 21.2407 34.9309 23.0098C34.5988 24.7788 35.7554 26.4838 37.5145 26.8178C39.2734 27.1517 40.9687 25.9883 41.3006 24.2192C41.6326 22.4499 40.4758 20.7451 38.7168 20.4112Z" fill="#8F5DAF"/>
<path id="Vector_7" d="M18.9836 34.4858C17.2154 34.2052 15.5558 35.4193 15.2768 37.1977C14.9979 38.9762 16.205 40.6457 17.9731 40.926C19.7412 41.2068 21.4008 39.9924 21.6798 38.214C21.9588 36.4357 20.7517 34.7664 18.9836 34.4858Z" fill="#8F5DAF"/>
<path id="Vector_8" d="M4.2934 15.1526C2.51768 14.9258 0.895026 16.1896 0.669277 17.9757C0.443446 19.7617 1.70024 21.3937 3.4758 21.6206C5.25161 21.8476 6.87418 20.584 7.09976 18.798C7.32551 17.0117 6.06904 15.3799 4.2934 15.1526Z" fill="#8F5DAF"/>
</g>
<path id="Vector_9" opacity="0.1" d="M2.4578 17.9756C2.62621 16.6432 3.57227 15.6018 4.77911 15.2528C4.62235 15.2076 4.46017 15.1739 4.2934 15.1526C2.51768 14.9258 0.895026 16.1896 0.669277 17.9757C0.443446 19.7617 1.70024 21.3937 3.4758 21.6206C3.92681 21.6783 4.36789 21.6394 4.77878 21.5206C3.2658 21.0857 2.25313 19.594 2.4578 17.9756Z" fill="black"/>
<g id="Group_3">
<path id="Vector_10" d="M41.2145 16.3031C40.8614 14.5379 39.1526 13.3952 37.3977 13.7505C35.6429 14.1057 34.5066 15.8246 34.8596 17.5896C35.2129 19.3546 36.9217 20.4974 38.6766 20.142C40.4314 19.7868 41.5679 18.0681 41.2145 16.3031Z" fill="#53E7D3"/>
<path id="Vector_11" d="M37.4513 27.0823C35.9459 26.1082 33.9404 26.5456 32.9718 28.0597C32.0032 29.5738 32.4381 31.5909 33.9436 32.5652C35.449 33.5392 37.4545 33.1019 38.4229 31.5877C39.3918 30.0739 38.9566 28.0565 37.4513 27.0823Z" fill="#53E7D3"/>
<path id="Vector_12" d="M24.3678 34.2515C22.6245 34.6597 21.5401 36.412 21.9458 38.1657C22.3518 39.9191 24.0938 41.0101 25.8372 40.6018C27.5807 40.1938 28.665 38.4413 28.2593 36.6878C27.8534 34.934 26.1113 33.8433 24.3678 34.2515Z" fill="#53E7D3"/>
<path id="Vector_13" d="M13.9062 32.6683C12.3724 31.7399 10.3811 32.2378 9.45791 33.7806C8.53539 35.3234 9.03028 37.3266 10.5642 38.2549C12.0977 39.1831 14.0895 38.685 15.0122 37.1423C15.9351 35.5995 15.4399 33.5964 13.9062 32.6683Z" fill="#53E7D3"/>
<path id="Vector_14" d="M3.532 21.8865C1.80156 22.3474 0.77002 24.1317 1.228 25.8722C1.68598 27.6128 3.46014 28.6502 5.1905 28.1894C6.92103 27.7288 7.95265 25.9445 7.49442 24.2041C7.03653 22.4634 5.26269 21.426 3.532 21.8865Z" fill="#53E7D3"/>
<path id="Vector_15" d="M7.51429 9.19985C5.9534 8.3186 3.97769 8.87665 3.10119 10.4464C2.22477 12.0162 2.77995 14.0036 4.34051 14.8848C5.90139 15.7664 7.87711 15.2086 8.75328 13.6385C9.6297 12.0686 9.07509 10.0815 7.51429 9.19985Z" fill="#53E7D3"/>
</g>
<path id="Vector_16" opacity="0.1" d="M6.09769 14.8848C4.53697 14.0035 3.98195 12.0162 4.85837 10.4464C5.29617 9.66226 6.00836 9.13062 6.80603 8.90471C5.39781 8.50473 3.84923 9.10667 3.10119 10.4464C2.22477 12.0162 2.77995 14.0036 4.34051 14.8848C5.12177 15.3261 6.00705 15.4066 6.80628 15.1802C6.56437 15.1116 6.32656 15.014 6.09769 14.8848Z" fill="black"/>
<g id="Group_4">
<path id="Vector_17" d="M38.1779 8.99944C37.1912 7.49721 35.1806 7.08377 33.687 8.07618C32.1935 9.06859 31.7826 11.0909 32.7691 12.5931C33.7558 14.0953 35.7663 14.5088 37.2599 13.5163C38.7535 12.524 39.1645 10.5017 38.1779 8.99944Z" fill="#E8A09C"/>
<path id="Vector_18" d="M29.2701 31.9994C27.8069 33.0365 27.4566 35.0703 28.4876 36.5421C29.5189 38.0137 31.5411 38.3664 33.0041 37.3291C34.4674 36.2922 34.8175 34.2582 33.7865 32.7865C32.7551 31.3147 30.7332 30.9623 29.2701 31.9994Z" fill="#E8A09C"/>
<path id="Vector_19" d="M5.34194 28.4148C3.91058 29.4958 3.62118 31.5392 4.69554 32.9791C5.77022 34.419 7.80188 34.7099 9.23332 33.6291C10.665 32.5482 10.9544 30.5048 9.87981 29.065C8.80512 27.6251 6.77371 27.3339 5.34194 28.4148Z" fill="#E8A09C"/>
<path id="Vector_20" d="M8.16765 4.38792C6.76886 5.51166 6.5409 7.56301 7.65799 8.96967C8.77525 10.3765 10.8146 10.606 12.213 9.48236C13.6118 8.35871 13.8398 6.30752 12.7229 4.90061C11.6056 3.49386 9.56603 3.26434 8.16765 4.38792Z" fill="#E8A09C"/>
</g>
<path id="Vector_21" opacity="0.1" d="M9.41518 8.96967C8.29808 7.563 8.52604 5.51157 9.92484 4.38791C10.2735 4.10769 10.6621 3.9118 11.0663 3.79721C10.0964 3.52413 9.01454 3.70747 8.16765 4.38791C6.76886 5.51165 6.5409 7.563 7.65799 8.96967C8.4966 10.0257 9.85486 10.4183 11.0715 10.0731C10.4401 9.8953 9.85585 9.52444 9.41518 8.96967Z" fill="black"/>
<path id="Vector_22" d="M24.5569 4.04765C24.5569 4.51908 24.1712 4.90479 23.6997 4.90479H17.7164C17.245 4.90479 16.8593 4.51908 16.8593 4.04765V1.89065C16.8593 1.41922 17.245 1.03351 17.7164 1.03351H23.6997C24.1712 1.03351 24.5569 1.41922 24.5569 1.89065V4.04765Z" fill="#8AA5B6"/>
<path id="Vector_23" opacity="0.1" d="M18.6169 4.04765V1.89065C18.6169 1.41922 19.0026 1.03351 19.474 1.03351H17.7165C17.245 1.03351 16.8593 1.41922 16.8593 1.89065V4.04765C16.8593 4.51908 17.245 4.90479 17.7165 4.90479H19.474C19.0026 4.90479 18.6169 4.51908 18.6169 4.04765Z" fill="black"/>
<g id="Group_5">
<path id="Vector_24" d="M18.0714 11.061C18.7872 11.061 19.3674 10.4783 19.3674 9.75954C19.3674 9.04074 18.7872 8.45804 18.0714 8.45804C17.3557 8.45804 16.7754 9.04074 16.7754 9.75954C16.7754 10.4783 17.3557 11.061 18.0714 11.061Z" fill="#BF953E"/>
<path id="Vector_25" d="M23.7371 11.061C24.4529 11.061 25.0331 10.4783 25.0331 9.75954C25.0331 9.04074 24.4529 8.45804 23.7371 8.45804C23.0214 8.45804 22.4411 9.04074 22.4411 9.75954C22.4411 10.4783 23.0214 11.061 23.7371 11.061Z" fill="#BF953E"/>
</g>
<path id="Vector_26" opacity="0.1" d="M12.3162 38.2549C10.7823 37.3266 10.2874 35.3234 11.2099 33.7806C11.6536 33.0389 12.3445 32.5396 13.1125 32.3234C11.7414 31.9346 10.2279 32.4936 9.45776 33.7806C8.53524 35.3234 9.03013 37.3266 10.564 38.2549C11.3603 38.7368 12.2799 38.8334 13.1094 38.5997C12.8372 38.5225 12.5703 38.4087 12.3162 38.2549Z" fill="black"/>
<g id="Group_6">
<path id="Vector_27" d="M40.0167 16.9208C39.9962 16.8179 39.966 16.7163 39.927 16.6189C39.8615 16.4552 39.7031 16.3495 39.5293 16.3495C39.5165 16.3495 39.5037 16.35 39.4908 16.3512C39.3023 16.3681 39.1472 16.5067 39.1092 16.6923C38.9707 17.3699 38.4485 17.8952 37.772 18.0323C37.5894 18.0715 37.4534 18.2245 37.4356 18.4103C37.4178 18.5962 37.5223 18.7723 37.6941 18.8455C37.9022 18.9341 38.1225 18.9792 38.3487 18.9792C38.4607 18.9792 38.574 18.9678 38.6857 18.9452C39.6057 18.7588 40.2029 17.8508 40.0167 16.9208Z" fill="white"/>
<path id="Vector_28" d="M37.4193 29.4979C37.3539 29.3342 37.1954 29.2285 37.0216 29.2285C37.0088 29.2285 36.996 29.2291 36.9832 29.2303C36.7946 29.2472 36.6395 29.3858 36.6015 29.5713C36.463 30.2488 35.9408 30.7742 35.2644 30.9112C35.0818 30.9505 34.9457 31.1034 34.9279 31.2893C34.9101 31.4752 35.0146 31.6513 35.1864 31.7245C35.3945 31.8131 35.6148 31.8582 35.841 31.8582C35.953 31.8582 36.0663 31.8467 36.178 31.8241C37.0982 31.6378 37.6953 30.7298 37.5091 29.8001C37.4885 29.697 37.4583 29.5954 37.4193 29.4979Z" fill="white"/>
<path id="Vector_29" d="M27.0079 37.2123C26.9424 37.0485 26.784 36.9429 26.6102 36.9429C26.5974 36.9429 26.5846 36.9434 26.5717 36.9447C26.3831 36.9616 26.2281 37.1001 26.1901 37.2857C26.0516 37.9632 25.5293 38.4886 24.8529 38.6256C24.6703 38.6649 24.5342 38.8178 24.5164 39.0037C24.4986 39.1895 24.6031 39.3657 24.775 39.4388C24.9831 39.5275 25.2034 39.5725 25.4296 39.5725C25.5416 39.5725 25.6549 39.5611 25.7666 39.5385C26.6867 39.3522 27.2839 38.4442 27.0977 37.5145C27.0771 37.4113 27.0469 37.3097 27.0079 37.2123Z" fill="white"/>
</g>
<path id="Vector_30" d="M40.0941 20.2561C41.4249 19.4188 42.1723 17.8125 41.8448 16.177C41.52 14.5536 40.2066 13.3288 38.6165 13.0871C38.9901 12.5694 39.2366 11.9621 39.3232 11.3136C39.3702 10.9618 39.1229 10.6383 38.771 10.5914C38.4184 10.5442 38.0957 10.7917 38.0488 11.1435C37.9486 11.8944 37.5314 12.5641 36.9041 12.9811C36.3266 13.3649 35.635 13.4998 34.957 13.3614C34.276 13.2222 33.6898 12.8241 33.3064 12.2405C32.515 11.0353 32.8453 9.40746 34.0427 8.61176C34.6204 8.22802 35.3119 8.09292 35.9902 8.23155C36.6711 8.37076 37.2572 8.76877 37.6407 9.35267C37.6702 9.39746 37.6987 9.44405 37.7256 9.49089C37.9021 9.79908 38.2949 9.90588 38.6029 9.72944C38.911 9.55307 39.0178 9.16022 38.8415 8.85211C38.8016 8.78239 38.7591 8.71315 38.7153 8.64654C38.1427 7.77472 37.2664 7.18 36.2477 6.9718C35.684 6.85663 35.1142 6.86811 34.571 6.99871C34.944 5.46793 34.3673 3.79376 33.0007 2.84958C32.3501 2.40022 31.5904 2.16258 30.8034 2.16258C29.6324 2.16258 28.5326 2.69217 27.7985 3.59213C26.961 3.25318 26.0935 2.97452 25.2 2.7605V1.89064C25.2 1.06361 24.527 0.390625 23.7 0.390625H17.7166C16.8896 0.390625 16.2166 1.06361 16.2166 1.89064V2.90217C16.1224 2.92776 16.0279 2.95261 15.9342 2.98001C15.5933 3.07968 15.3979 3.43668 15.4976 3.77752C15.5908 4.09629 15.9092 4.28783 16.2287 4.22967C16.319 4.97099 16.9511 5.54766 17.7165 5.54766H19.7576L18.4335 7.85002C18.316 7.82763 18.1951 7.81549 18.0712 7.81549C17.0019 7.81549 16.132 8.68781 16.132 9.75995C16.132 10.8321 17.0019 11.7043 18.0712 11.7043C19.1406 11.7043 20.0105 10.8321 20.0105 9.75995C20.0105 9.27843 19.8347 8.83743 19.5444 8.49749L20.8675 6.19669L22.2209 8.54991C21.9564 8.88222 21.7978 9.30271 21.7978 9.75995C21.7978 10.8321 22.6678 11.7043 23.7371 11.7043C24.8065 11.7043 25.6764 10.8321 25.6764 9.75995C25.6764 8.68781 24.8062 7.81557 23.737 7.81557C23.59 7.81557 23.447 7.83263 23.3093 7.86381L21.9773 5.54774H23.6996C24.514 5.54774 25.1775 4.89486 25.1977 4.08522C25.8697 4.25929 26.5222 4.47265 27.1536 4.72194C26.5579 6.35526 27.1096 8.25271 28.5998 9.2822C29.2504 9.73157 30.0103 9.96921 30.7972 9.96921C31.1067 9.96921 31.4112 9.93148 31.7055 9.86044C31.4547 10.882 31.6112 12.0015 32.2317 12.9464C32.8044 13.8183 33.6807 14.4129 34.6995 14.6211C34.7647 14.6344 34.83 14.646 34.8954 14.656C34.2806 15.5081 34.0071 16.6052 34.2292 17.7159C34.4518 18.8281 35.1387 19.7528 36.0602 20.3031C35.1648 20.8654 34.5061 21.7875 34.2989 22.8913C34.0868 24.0209 34.3848 25.1303 35.0289 25.9799C33.9672 26.1648 33.0252 26.7831 32.4302 27.7134C31.8119 28.6797 31.6735 29.8204 31.9528 30.8508C31.6861 30.7929 31.4121 30.7613 31.134 30.7613C30.3302 30.7613 29.557 31.0081 28.8982 31.4751C27.9652 32.1363 27.4106 33.1392 27.2832 34.1979C27.2384 34.1674 27.1934 34.1372 27.1472 34.1085C26.2677 33.5611 25.2286 33.3897 24.2212 33.6256C23.1088 33.886 22.2196 34.6061 21.7055 35.5391C21.124 34.6653 20.1964 34.0275 19.0842 33.851C18.8824 33.819 18.6772 33.8028 18.4742 33.8028C17.5526 33.8028 16.7028 34.1223 16.0343 34.665C15.8208 33.6386 15.2007 32.7005 14.2388 32.1185C13.6334 31.752 12.9414 31.5584 12.2378 31.5584C11.8492 31.5584 11.4679 31.6196 11.1041 31.7319C11.2945 30.6963 11.0715 29.5872 10.3949 28.6807C9.72452 27.7825 8.73194 27.2325 7.63339 27.1361C8.19661 26.2482 8.40431 25.1362 8.11589 24.0408C7.82731 22.9438 7.08903 22.0597 6.13304 21.5658C6.62851 21.2131 7.04522 20.7432 7.33504 20.1801C7.49754 19.8644 7.37335 19.4768 7.05769 19.3143C6.74196 19.1518 6.35444 19.276 6.19186 19.5916C5.69262 20.5615 4.63409 21.1208 3.55702 20.9829C2.13518 20.8011 1.12563 19.4882 1.30675 18.0562C1.39477 17.3596 1.74775 16.7402 2.30056 16.312C2.84795 15.8881 3.52643 15.7026 4.21147 15.7902C5.31921 15.932 6.21162 16.7674 6.43196 17.869C6.50169 18.2172 6.84015 18.4425 7.18845 18.3733C7.53659 18.3036 7.76242 17.9649 7.69269 17.6169C7.55759 16.9418 7.25284 16.334 6.82604 15.837C7.86799 15.5869 8.77829 14.9125 9.31436 13.9519C9.87349 12.9502 9.9437 11.8039 9.60385 10.7926C9.79687 10.8218 9.99325 10.8382 10.1923 10.8382C11.069 10.8382 11.9296 10.5346 12.6154 9.9834C14.0598 8.82316 14.4593 6.82882 13.68 5.22364C13.8349 5.14801 13.9908 5.07451 14.148 5.00413C14.4721 4.85918 14.6173 4.47888 14.4724 4.15478C14.3274 3.83076 13.9473 3.68564 13.623 3.83051C13.3876 3.93584 13.1548 4.04691 12.9242 4.16265C12.2001 3.43939 11.2254 3.03218 10.188 3.03218C9.31125 3.03218 8.45074 3.3357 7.76488 3.88678C6.45616 4.93817 6.00458 6.67452 6.5112 8.18528C6.31917 8.15584 6.12525 8.1391 5.93042 8.1391C4.52573 8.1391 3.22644 8.90306 2.53976 10.1331C1.72019 11.6013 1.95053 13.3803 2.98437 14.5891C2.45625 14.7153 1.95603 14.9527 1.51339 15.2955C0.688811 15.9342 0.162501 16.8573 0.0313337 17.8949C-0.179978 19.566 0.699065 21.1285 2.11016 21.8583C0.832038 22.7745 0.182024 24.4232 0.606288 26.0358C1.02661 27.6334 2.39998 28.7806 4.01238 28.9258C3.17107 30.257 3.18501 32.0298 4.18029 33.3635C4.92087 34.3559 6.05437 34.925 7.29009 34.925C7.67645 34.925 8.0542 34.868 8.41547 34.7579C8.13476 36.3088 8.81061 37.9452 10.2311 38.8048C10.8364 39.1712 11.5283 39.3648 12.2318 39.3648C13.1296 39.3648 13.9913 39.0457 14.6746 38.4926C14.993 40.0379 16.2322 41.3008 17.8722 41.5609C18.0741 41.593 18.2794 41.6092 18.4825 41.6092C19.9359 41.6092 21.2118 40.8154 21.8767 39.6021C22.1807 40.0577 22.5798 40.4473 23.058 40.7448C23.6799 41.1319 24.3815 41.3309 25.0954 41.3309C25.391 41.3309 25.6887 41.2967 25.9837 41.2277C26.3294 41.1468 26.5441 40.8009 26.463 40.4551C26.3821 40.1094 26.0364 39.8945 25.6905 39.9758C25.0184 40.1331 24.3245 40.0186 23.7372 39.6532C23.1441 39.2841 22.7303 38.7043 22.5721 38.0207C22.2468 36.6143 23.118 35.2043 24.5143 34.8772C25.1867 34.7199 25.8806 34.8344 26.4679 35.2C27.0609 35.5689 27.4745 36.1487 27.6328 36.8325C27.8041 37.573 27.6475 38.3508 27.2033 38.9666C26.9955 39.2545 27.0604 39.6563 27.3484 39.8641C27.6362 40.0719 28.0381 40.0069 28.2458 39.719C28.6385 39.1748 28.8789 38.5455 28.9572 37.8935C29.593 38.3264 30.3518 38.5673 31.1398 38.5673C31.9437 38.5673 32.7168 38.3205 33.3754 37.8535C34.7441 36.8837 35.2989 35.179 34.8847 33.6407C35.1495 33.6976 35.4206 33.7269 35.6943 33.7269C37.0239 33.7269 38.2463 33.0567 38.9643 31.9342C39.8703 30.5184 39.7467 28.7286 38.7872 27.4594C40.3549 27.1839 41.6286 25.9557 41.9322 24.3377C42.243 22.6824 41.4588 21.0699 40.0941 20.2561ZM18.0712 10.4185C17.7108 10.4185 17.4177 10.123 17.4177 9.75987C17.4177 9.39672 17.7109 9.10116 18.0712 9.10116C18.4317 9.10116 18.7248 9.39664 18.7248 9.75987C18.7248 10.123 18.4315 10.4185 18.0712 10.4185ZM20.0652 4.26199H17.7165C17.6003 4.26199 17.5022 4.16388 17.5022 4.04773V1.89064C17.5022 1.7744 17.6003 1.67638 17.7165 1.67638H20.0652V4.26199ZM23.7371 9.10124C24.0976 9.10124 24.3907 9.39672 24.3907 9.75995C24.3907 10.123 24.0975 10.4186 23.7371 10.4186C23.3768 10.4186 23.0836 10.1231 23.0836 9.75995C23.0836 9.39672 23.3767 9.10124 23.7371 9.10124ZM23.9141 4.04765C23.9141 4.1638 23.816 4.26191 23.6998 4.26191H21.351V1.6763H23.6998C23.816 1.6763 23.9141 1.77432 23.9141 1.89056V4.04765ZM30.7974 8.68329C30.2727 8.68329 29.7655 8.52448 29.3308 8.22417C28.1477 7.40689 27.8466 5.77333 28.6596 4.58273C29.1446 3.87243 29.946 3.44841 30.8033 3.44841C31.3279 3.44841 31.8351 3.60722 32.2697 3.90737C33.4529 4.72473 33.7539 6.35837 32.9409 7.54897C32.4559 8.25928 31.6546 8.68329 30.7974 8.68329ZM8.57034 4.88895C9.03538 4.51539 9.59483 4.31786 10.1882 4.31786C10.9832 4.31786 11.7236 4.676 12.2195 5.30026C13.1155 6.42884 12.932 8.08012 11.8104 8.98107C11.3454 9.3548 10.7859 9.55233 10.1926 9.55233C9.39779 9.55233 8.65746 9.1941 8.1615 8.56976C7.26531 7.44135 7.44873 5.79006 8.57034 4.88895ZM3.66243 10.7598C4.12222 9.93648 4.99125 9.42494 5.93051 9.42494C6.37183 9.42494 6.8102 9.54076 7.19805 9.75954C8.4491 10.4663 8.89502 12.0658 8.19193 13.3253C7.73248 14.1486 6.86369 14.6602 5.92468 14.6602C5.48327 14.6602 5.04474 14.5442 4.65665 14.3251C3.40543 13.6184 2.95951 12.0192 3.66243 10.7598ZM4.35896 27.656C3.18321 27.656 2.15126 26.8551 1.84963 25.7087C1.48246 24.313 2.3113 22.877 3.6973 22.5077C3.91591 22.4495 4.13993 22.4201 4.3633 22.4201C5.53914 22.4201 6.571 23.2211 6.87271 24.3678C7.24029 25.7634 6.41137 27.1992 5.02505 27.5683C4.80652 27.6264 4.58241 27.656 4.35896 27.656ZM8.84605 33.1161C8.39266 33.4584 7.8547 33.6393 7.29017 33.6393C6.4642 33.6393 5.70631 33.2586 5.21085 32.5947C4.34895 31.4397 4.58159 29.7947 5.72937 28.9279C6.18267 28.5856 6.72063 28.4047 7.28516 28.4047C8.11122 28.4047 8.8691 28.7855 9.36473 29.4495C10.2267 30.6045 9.99399 32.2493 8.84605 33.1161ZM14.4604 36.8122C13.9859 37.6056 13.1528 38.0792 12.2318 38.0792C11.763 38.0792 11.3015 37.9497 10.8968 37.7049C9.66734 36.9608 9.26925 35.3483 10.0093 34.1106C10.484 33.3173 11.3171 32.8439 12.2378 32.8439C12.7068 32.8439 13.1685 32.9733 13.5732 33.2183C14.8029 33.9624 15.2009 35.5745 14.4604 36.8122ZM21.0446 38.1144C20.8438 39.3945 19.7663 40.3234 18.4825 40.3234C18.3467 40.3234 18.2093 40.3125 18.0738 40.291C16.6581 40.0664 15.6882 38.7235 15.9118 37.2973C16.1127 36.0172 17.1904 35.0884 18.4743 35.0884C18.6099 35.0884 18.7473 35.0993 18.8828 35.1207C20.2987 35.3456 21.2685 36.6884 21.0446 38.1144ZM35.49 17.4635C35.2069 16.048 36.1199 14.665 37.5252 14.3805C37.6954 14.3461 37.8689 14.3286 38.0407 14.3286C39.2711 14.3286 40.3407 15.2121 40.5841 16.4294C40.8674 17.8447 39.9545 19.2276 38.549 19.5121C38.3787 19.5466 38.2052 19.564 38.0335 19.564C36.8033 19.564 35.7336 18.6806 35.49 17.4635ZM32.6322 36.8046C32.192 37.1167 31.676 37.2817 31.14 37.2817C30.2952 37.2817 29.5005 36.8672 29.014 36.1731C28.187 34.9925 28.4685 33.3554 29.6418 32.5239C30.0821 32.2117 30.5981 32.0468 31.1342 32.0468C31.9789 32.0468 32.7736 32.4611 33.2599 33.1553C34.087 34.3361 33.8056 35.9732 32.6322 36.8046ZM37.8815 31.2415C37.4009 31.9929 36.5834 32.4413 35.6945 32.4413C35.1979 32.4413 34.7132 32.2976 34.2929 32.0256C33.086 31.2446 32.7364 29.6208 33.5134 28.4062C33.994 27.6548 34.8116 27.2062 35.7005 27.2062C36.1971 27.2062 36.6818 27.35 37.102 27.6219C38.3089 28.4032 38.6586 30.0268 37.8815 31.2415ZM40.6687 24.1006C40.437 25.3357 39.3648 26.2322 38.1193 26.2322C37.9578 26.2322 37.7947 26.2167 37.6343 26.1862C36.2257 25.9189 35.2963 24.5471 35.5626 23.1284C35.7944 21.8933 36.8666 20.9969 38.1118 20.9969C38.2732 20.9969 38.4364 21.0123 38.5968 21.0427C40.0056 21.3102 40.935 22.682 40.6687 24.1006Z" fill="black"/>
</g>
</g>
</svg>
