<svg width="42" height="42" viewBox="0 0 42 42" fill="none" xmlns="http://www.w3.org/2000/svg">
<path d="M37.1684 6.09909H4.83172C4.06858 6.09909 3.44998 6.71777 3.44998 7.48083V29.4677C3.44998 30.2307 4.06866 30.8494 4.83172 30.8494H37.1684C37.9314 30.8494 38.5501 30.2307 38.5501 29.4677V7.48083C38.5501 6.71769 37.9315 6.09909 37.1684 6.09909Z" fill="#39A3DB"/>
<path d="M37.1684 6.09909H21V30.8496H37.1684C37.9314 30.8496 38.5501 30.2309 38.5501 29.4678V7.48083C38.5501 6.71769 37.9315 6.09909 37.1684 6.09909Z" fill="#2275AA"/>
<path d="M32.8463 26.5275C33.6094 26.5275 34.228 25.9088 34.228 25.1458V11.8028C34.228 11.0397 33.6094 10.4211 32.8463 10.4211H9.15371C8.39057 10.4211 7.77197 11.0398 7.77197 11.8028V25.1458C7.77197 25.9089 8.39065 26.5275 9.15371 26.5275H32.8463Z" fill="#FFE49C"/>
<path d="M32.8463 10.4211H21V26.5276H32.8463C33.6094 26.5276 34.228 25.9089 34.228 25.1459V11.8028C34.2281 11.0397 33.6095 10.4211 32.8463 10.4211Z" fill="#FFC72D"/>
<path d="M40.6183 28.0859H1.38173C0.61868 28.0859 0 28.7046 0 29.4677V33.0784C0 34.6346 1.26615 35.9008 2.82237 35.9008H39.1776C40.7339 35.9008 42 34.6347 42 33.0784V29.4677C42 28.7046 41.3814 28.0859 40.6183 28.0859Z" fill="#2275AA"/>
<path d="M40.6183 28.0859H21V35.9009H39.1776C40.7339 35.9009 42 34.6347 42 33.0784V29.4678C42 28.7046 41.3814 28.0859 40.6183 28.0859Z" fill="#2264AA"/>
<path d="M24.5528 28.0855H17.446V35.9007H24.5528V28.0855Z" fill="#74B8E5"/>
<path d="M24.5535 28.0855H20.9999V35.9007H24.5535V28.0855Z" fill="#3994DB"/>
<path d="M24.6586 17.0925H24.4813C24.1005 16.1367 23.3375 15.3737 22.3817 14.993V14.8157C22.3817 14.0525 21.7631 13.4339 21 13.4339C20.2369 13.4339 19.6183 14.0526 19.6183 14.8157V14.993C18.6625 15.3737 17.8995 16.1368 17.5188 17.0925H17.3414C16.5783 17.0925 15.9597 17.7112 15.9597 18.4743C15.9597 19.2374 16.5784 19.856 17.3414 19.856H17.5188C17.8995 20.8118 18.6625 21.5748 19.6183 21.9555V22.1329C19.6183 22.896 20.237 23.5146 21 23.5146C21.7632 23.5146 22.3817 22.8959 22.3817 22.1329V21.9555C23.3376 21.5748 24.1005 20.8117 24.4813 19.856H24.6586C25.4217 19.856 26.0403 19.2373 26.0403 18.4743C26.0403 17.7112 25.4217 17.0925 24.6586 17.0925ZM21 19.4572C20.458 19.4572 20.017 19.0162 20.017 18.4743C20.017 17.9323 20.458 17.4913 21 17.4913C21.542 17.4913 21.983 17.9323 21.983 18.4743C21.983 19.0162 21.542 19.4572 21 19.4572Z" fill="#FF905E"/>
<path d="M24.6586 17.0925H24.4812C24.1005 16.1367 23.3375 15.3737 22.3817 14.993V14.8157C22.3817 14.0525 21.7631 13.4339 21 13.4339V17.4913C21.542 17.4913 21.983 17.9323 21.983 18.4743C21.983 19.0162 21.542 19.4572 21 19.4572V23.5146C21.7631 23.5146 22.3817 22.8959 22.3817 22.1329V21.9555C23.3376 21.5748 24.1005 20.8117 24.4812 19.856H24.6586C25.4217 19.856 26.0403 19.2373 26.0403 18.4743C26.0403 17.7112 25.4217 17.0925 24.6586 17.0925Z" fill="#E87E04"/>
</svg>
