<svg width="42" height="42" viewBox="0 0 42 42" fill="none" xmlns="http://www.w3.org/2000/svg">
<g id="phone">
<g id="smartphone-svgrepo-com 1">
<path id="Vector" d="M30.4138 42H11.5862C10.3864 42 9.41376 41.0274 9.41376 39.8276V2.17243C9.41384 0.972645 10.3864 0 11.5862 0H30.4138C31.6135 0 32.5862 0.972645 32.5862 2.17243V39.8276C32.5862 41.0274 31.6136 42 30.4138 42Z" fill="#707384"/>
<path id="Vector_2" d="M31.1379 5.79312H10.8621V36.2069H31.1379V5.79312Z" fill="#FFD782"/>
<g id="Group">
<path id="Vector_3" d="M23.1724 3.62069H18.8276C18.4277 3.62069 18.1034 3.29642 18.1034 2.89652C18.1034 2.49662 18.4277 2.17235 18.8276 2.17235H23.1724C23.5723 2.17235 23.8966 2.49662 23.8966 2.89652C23.8965 3.29642 23.5723 3.62069 23.1724 3.62069Z" fill="#464655"/>
<path id="Vector_4" d="M15.9311 3.62069C15.5311 3.62069 15.2069 3.29642 15.2069 2.89652C15.2069 2.49662 15.5311 2.17235 15.9311 2.17235C16.331 2.17235 16.6552 2.49662 16.6552 2.89652C16.6551 3.29642 16.331 3.62069 15.9311 3.62069Z" fill="#464655"/>
<path id="Vector_5" d="M21 40.5517C21.7999 40.5517 22.4483 39.9033 22.4483 39.1035C22.4483 38.3036 21.7999 37.6552 21 37.6552C20.2002 37.6552 19.5518 38.3036 19.5518 39.1035C19.5518 39.9033 20.2002 40.5517 21 40.5517Z" fill="#464655"/>
</g>
<path id="Vector_6" d="M21 14.4828C20.2001 14.4828 19.5517 13.8344 19.5517 13.0345V5.79312H22.4483V13.0345C22.4483 13.8344 21.7999 14.4828 21 14.4828Z" fill="white"/>
<path id="Vector_7" d="M23.8965 14.4828C23.0966 14.4828 22.4483 13.8344 22.4483 13.0345V5.79312H25.3448V13.0345C25.3449 13.8344 24.6965 14.4828 23.8965 14.4828Z" fill="#FF6464"/>
<path id="Vector_8" d="M26.7931 14.4828C25.9933 14.4828 25.3449 13.8344 25.3449 13.0345V5.79312H28.2414V13.0345C28.2414 13.8344 27.593 14.4828 26.7931 14.4828Z" fill="white"/>
<g id="Group_2">
<path id="Vector_9" d="M29.6897 14.4828C28.8898 14.4828 28.2414 13.8344 28.2414 13.0345V5.79312H31.1379V13.0345C31.1379 13.8344 30.4895 14.4828 29.6897 14.4828Z" fill="#FF6464"/>
<path id="Vector_10" d="M18.1035 14.4828C17.3036 14.4828 16.6552 13.8344 16.6552 13.0345V5.79312H19.5517V13.0345C19.5517 13.8344 18.9034 14.4828 18.1035 14.4828Z" fill="#FF6464"/>
</g>
<path id="Vector_11" d="M15.2069 14.4828C14.407 14.4828 13.7586 13.8344 13.7586 13.0345V5.79312H16.6551V13.0345C16.6551 13.8344 16.0068 14.4828 15.2069 14.4828Z" fill="white"/>
<path id="Vector_12" d="M12.3104 14.4828C11.5105 14.4828 10.8621 13.8344 10.8621 13.0345V5.79312H13.7586V13.0345C13.7586 13.8344 13.1102 14.4828 12.3104 14.4828Z" fill="#FF6464"/>
<g id="Group_3">
<path id="Vector_13" d="M31.1379 13.0345C31.1379 13.8343 30.4895 14.4828 29.6896 14.4828C28.8898 14.4828 28.2414 13.8343 28.2414 13.0345C28.2414 13.8343 27.5929 14.4828 26.7931 14.4828C25.9933 14.4828 25.3449 13.8343 25.3449 13.0345C25.3449 13.8343 24.6964 14.4828 23.8966 14.4828C23.0968 14.4828 22.4483 13.8343 22.4483 13.0345C22.4483 13.8343 21.7999 14.4828 21.0001 14.4828C20.2003 14.4828 19.5518 13.8343 19.5518 13.0345C19.5518 13.8343 18.9034 14.4828 18.1036 14.4828C17.3037 14.4828 16.6553 13.8343 16.6553 13.0345C16.6553 13.8343 16.0068 14.4828 15.207 14.4828C14.4072 14.4828 13.7588 13.8343 13.7588 13.0345C13.7588 13.8343 13.1103 14.4828 12.3105 14.4828C11.5107 14.4828 10.8622 13.8343 10.8622 13.0345V15.5281C11.29 15.7776 11.7807 15.9311 12.3105 15.9311C12.8376 15.9311 13.3325 15.7895 13.7588 15.5425C14.185 15.7895 14.6799 15.9311 15.207 15.9311C15.7342 15.9311 16.2291 15.7895 16.6553 15.5425C17.0815 15.7895 17.5764 15.9311 18.1036 15.9311C18.6307 15.9311 19.1256 15.7895 19.5518 15.5425C19.978 15.7895 20.4729 15.9311 21.0001 15.9311C21.5272 15.9311 22.0221 15.7895 22.4483 15.5425C22.8746 15.7895 23.3695 15.9311 23.8966 15.9311C24.4238 15.9311 24.9186 15.7895 25.3449 15.5425C25.7711 15.7895 26.266 15.9311 26.7931 15.9311C27.3203 15.9311 27.8151 15.7895 28.2414 15.5425C28.6676 15.7895 29.1625 15.9311 29.6896 15.9311C30.2196 15.9311 30.7101 15.7777 31.1379 15.5283V13.0345Z" fill="#FFC36E"/>
<path id="Vector_14" d="M28.2414 25.3449H13.7586C13.3587 25.3449 13.0344 25.0206 13.0344 24.6207V18.8276C13.0344 18.4277 13.3587 18.1034 13.7586 18.1034H28.2414C28.6413 18.1034 28.9655 18.4277 28.9655 18.8276V24.6207C28.9655 25.0206 28.6413 25.3449 28.2414 25.3449Z" fill="#FFC36E"/>
</g>
<path id="Vector_15" d="M16.6551 23.8966C17.8549 23.8966 18.8276 22.924 18.8276 21.7242C18.8276 20.5244 17.8549 19.5517 16.6551 19.5517C15.4553 19.5517 14.4827 20.5244 14.4827 21.7242C14.4827 22.924 15.4553 23.8966 16.6551 23.8966Z" fill="#FF6464"/>
<path id="Vector_16" d="M26.7931 21H21C20.6001 21 20.2758 20.6757 20.2758 20.2758C20.2758 19.8759 20.6001 19.5517 21 19.5517H26.7931C27.193 19.5517 27.5173 19.8759 27.5173 20.2758C27.5172 20.6757 27.193 21 26.7931 21Z" fill="white"/>
<path id="Vector_17" d="M26.7931 23.8965H21C20.6001 23.8965 20.2758 23.5723 20.2758 23.1724C20.2758 22.7725 20.6001 22.4482 21 22.4482H26.7931C27.193 22.4482 27.5173 22.7725 27.5173 23.1724C27.5172 23.5723 27.193 23.8965 26.7931 23.8965Z" fill="#F0AA5A"/>
<path id="Vector_18" d="M28.2414 34.0345H13.7586C13.3587 34.0345 13.0344 33.7102 13.0344 33.3103V27.5172C13.0344 27.1173 13.3587 26.793 13.7586 26.793H28.2414C28.6413 26.793 28.9655 27.1173 28.9655 27.5172V33.3103C28.9655 33.7102 28.6413 34.0345 28.2414 34.0345Z" fill="#FFC36E"/>
<path id="Vector_19" d="M16.6551 32.5863C17.8549 32.5863 18.8276 31.6136 18.8276 30.4138C18.8276 29.214 17.8549 28.2414 16.6551 28.2414C15.4553 28.2414 14.4827 29.214 14.4827 30.4138C14.4827 31.6136 15.4553 32.5863 16.6551 32.5863Z" fill="#FF6464"/>
<path id="Vector_20" d="M26.7931 29.6896H21C20.6001 29.6896 20.2758 29.3654 20.2758 28.9655C20.2758 28.5656 20.6001 28.2413 21 28.2413H26.7931C27.193 28.2413 27.5173 28.5656 27.5173 28.9655C27.5172 29.3654 27.193 29.6896 26.7931 29.6896Z" fill="white"/>
<path id="Vector_21" d="M26.7931 32.5862H21C20.6001 32.5862 20.2758 32.2619 20.2758 31.862C20.2758 31.4621 20.6001 31.1378 21 31.1378H26.7931C27.193 31.1378 27.5173 31.4621 27.5173 31.862C27.5172 32.262 27.193 32.5862 26.7931 32.5862Z" fill="#F0AA5A"/>
</g>
</g>
</svg>
