<svg width="42" height="42" viewBox="0 0 42 42" fill="none" xmlns="http://www.w3.org/2000/svg">
<g id="shoes-icon">
<g id="sneakers-shoes-svgrepo-com 1" clip-path="url(#clip0_7_425)">
<g id="Group">
<path id="Vector" d="M33.158 21.1943C32.2304 20.9952 30.4889 20.0009 28.5054 18.7112L27.005 20.2117C26.4395 20.7772 25.5227 20.7772 24.9572 20.2117C24.3917 19.6454 24.3917 18.7294 24.9572 18.1631L26.0586 17.0624C25.3149 16.5454 24.5697 16.016 23.8457 15.4932L22.6602 16.6787C22.0947 17.2442 21.1779 17.2442 20.6124 16.6787C20.0469 16.1131 20.0469 15.1964 20.6124 14.6308L21.4813 13.7611C20.183 12.7959 19.0902 11.9631 18.4161 11.4447C17.9953 11.1217 17.4023 11.1615 17.0272 11.5366L15.5398 13.024C15.0967 13.4671 15.0967 14.1855 15.5398 14.6294L15.9447 15.0335C16.4436 15.5332 16.2995 16.3942 15.6507 16.673C8.50048 19.7434 5.15787 13.8264 5.15787 13.8264C2.76305 13.3961 0.736877 27.1532 0.736877 27.1532H41.9997C41.9997 21.7498 36.2899 21.8707 33.158 21.1943Z" fill="#569E67"/>
<path id="Vector_2" d="M42 27.1529H0.737133L0 29.3C0 29.3 0.552481 30.7736 5.89452 30.7736H37.6552C37.6551 30.7736 42.0116 30.502 42 27.1529Z" fill="#DEDEE1"/>
<g id="Group_2">
<path id="Vector_3" d="M20.6121 16.6784C20.0466 16.1136 20.0466 15.1961 20.6121 14.6306L22.1487 13.0947C22.7136 12.5292 23.631 12.5292 24.1966 13.0947C24.7621 13.6603 24.7621 14.577 24.1966 15.1426L22.6607 16.6784C22.0944 17.244 21.1777 17.244 20.6121 16.6784Z" fill="#397949"/>
<path id="Vector_4" d="M24.9569 20.2114C24.3914 19.6459 24.3914 18.7291 24.9569 18.1636L26.4935 16.6277C27.0584 16.0622 27.9758 16.0622 28.5414 16.6277C29.1069 17.1926 29.1069 18.11 28.5414 18.6756L27.0055 20.2114C26.4393 20.7769 25.5225 20.7769 24.9569 20.2114Z" fill="#397949"/>
<path id="Vector_5" d="M20.227 24.2959C18.7911 23.9085 17.0596 23.5725 15.2065 23.1888H14.8264C14.8264 23.7782 14.3477 24.2562 13.7583 24.2562H9.41349C8.61401 24.2562 7.96522 23.608 7.96522 22.8079V21.3053C5.99049 20.6102 4.10918 19.7239 2.51171 18.5297C1.44218 22.3676 0.736877 27.1527 0.736877 27.1527H23.5364C22.918 25.7848 21.7427 24.7051 20.227 24.2959Z" fill="#397949"/>
</g>
<path id="Vector_6" d="M13.7586 24.2564H9.41375C8.61427 24.2564 7.96548 23.6075 7.96548 22.8081V21.3599C7.96548 20.5604 8.61435 19.9116 9.41375 19.9116H13.7586C14.5581 19.9116 15.2069 20.5605 15.2069 21.3599V22.8081C15.2069 23.6075 14.5581 24.2564 13.7586 24.2564Z" fill="#2B5E36"/>
<path id="Vector_7" d="M12.3103 22.8081H10.8621C10.4623 22.8081 10.1379 22.4844 10.1379 22.0839C10.1379 21.6834 10.4623 21.3597 10.8621 21.3597H12.3103C12.7101 21.3597 13.0345 21.6834 13.0345 22.0839C13.0345 22.4844 12.7101 22.8081 12.3103 22.8081Z" fill="#569E67"/>
</g>
</g>
</g>
<defs>
<clipPath id="clip0_7_425">
<rect width="42" height="42" fill="white"/>
</clipPath>
</defs>
</svg>
