<svg width="42" height="42" viewBox="0 0 42 42" fill="none" xmlns="http://www.w3.org/2000/svg">
<g id="sport-icon">
<g id="beach-ball-svgrepo-com 1" clip-path="url(#clip0_5_920)">
<g id="Group">
<path id="Vector" d="M30.2872 18.1039V18.105C30.0125 26.9617 26.5502 35.0135 21.0105 41.1556H21.0003C13.1547 41.1556 6.35725 36.6743 3.0267 30.1302C9.591 23.3744 17.7857 18.2108 26.9746 15.2744C27.2538 15.7202 27.5995 16.1549 28.006 16.5613C28.7132 17.2684 29.5058 17.7898 30.2872 18.1039Z" fill="#F2F2F2"/>
<path id="Vector_2" d="M41.1549 20.9999C41.1549 23.2113 40.7991 25.3393 40.1404 27.33C39.8555 28.1936 39.5133 29.0301 39.1192 29.8375C39.5674 25.3934 36.5318 20.3873 33.8723 17.5984C34.6087 16.638 34.4657 15.0706 33.5942 13.5843C36.6298 12.625 39.2938 13.5236 39.7982 13.7127C40.6741 15.9724 41.1549 18.4304 41.1549 20.9999Z" fill="#F2F2F2"/>
<path id="Vector_3" d="M26.9533 1.73816C28.22 4.46069 29.1568 7.37017 29.713 10.4102C28.5453 10.0589 27.4498 10.1884 26.7641 10.873C26.5175 11.1207 26.3419 11.4224 26.2361 11.7602C21.9034 9.41717 16.9413 8.08736 11.6696 8.08736C9.35458 8.08736 7.10045 8.34412 4.93303 8.82934C8.61261 3.97769 14.4405 0.844101 21.0004 0.844101C23.0722 0.844101 25.0718 1.15713 26.9533 1.73816Z" fill="#F2F2F2"/>
</g>
<path id="Vector_4" d="M33.5942 13.5843C34.4657 15.0706 34.6087 16.638 33.8723 17.5984C33.8182 17.6704 33.7586 17.7391 33.6944 17.8033C32.9197 18.5768 31.6215 18.6433 30.2872 18.1051V18.1039C29.5058 17.7897 28.7131 17.2684 28.006 16.5613C27.5995 16.1549 27.2539 15.7203 26.9746 15.2743C26.2022 14.0471 25.9275 12.7443 26.236 11.7602C26.3418 11.4224 26.5175 11.1207 26.764 10.873C27.4497 10.1884 28.5453 10.0589 29.7129 10.4102C30.6373 10.6883 31.6067 11.2693 32.4523 12.1161C32.9141 12.5766 33.2969 13.0765 33.5942 13.5843Z" fill="#F95428"/>
<g id="Group_2">
<path id="Vector_5" d="M33.8723 17.5984C36.5318 20.3873 39.5674 25.3934 39.1192 29.8375C35.8461 36.5358 28.9676 41.1511 21.0105 41.1556C26.5503 35.0135 30.0126 26.9618 30.2873 18.105C31.6215 18.6432 32.9197 18.5768 33.6944 17.8032C33.7586 17.7391 33.8182 17.6704 33.8723 17.5984Z" fill="#2BA5F7"/>
<path id="Vector_6" d="M39.403 12.7668C39.5426 13.0776 39.6743 13.3939 39.7982 13.7126C39.2938 13.5235 36.6298 12.625 33.5942 13.5843C33.2969 13.0765 32.9142 12.5765 32.4525 12.116C31.6069 11.2693 30.6375 10.6882 29.7131 10.4101C29.1568 7.37008 28.22 4.4606 26.9534 1.73807C32.5155 3.45522 37.0498 7.51544 39.403 12.7668Z" fill="#2BA5F7"/>
<path id="Vector_7" d="M26.9747 15.2743C20.7504 17.2639 14.981 20.2747 9.86694 24.112C7.43152 25.9372 5.14466 27.9504 3.02678 30.1302C1.63061 27.3896 0.844673 24.2864 0.844673 20.9998C0.844673 16.4284 2.36692 12.2117 4.93302 8.82933C7.10045 8.34403 9.35466 8.08736 11.6696 8.08736C12.5287 8.08736 13.3788 8.12222 14.2198 8.19211C18.5412 8.54788 22.6093 9.79885 26.236 11.7603C25.9276 12.7443 26.2023 14.0471 26.9747 15.2743Z" fill="#2BA5F7"/>
</g>
<path id="Vector_8" d="M13.7154 8.82942C11.1494 12.2118 9.62709 16.4285 9.62709 20.9999C9.62709 22.0582 9.70928 23.0975 9.86695 24.1121C7.43152 25.9373 5.14466 27.9505 3.02678 30.1303C1.63061 27.3897 0.844673 24.2865 0.844673 20.9999C0.844673 16.4285 2.36692 12.2118 4.93302 8.82942C7.10045 8.34412 9.35466 8.08745 11.6696 8.08745C12.5287 8.08745 13.3788 8.12231 14.2198 8.1922C14.0464 8.40155 13.8787 8.61319 13.7154 8.82942Z" fill="#2197D8"/>
<g id="Group_3">
<path id="Vector_9" d="M11.6696 8.08736C9.35458 8.08736 7.10045 8.34412 4.93303 8.82934C8.61261 3.97769 14.4405 0.844101 21.0004 0.844101C22.5092 0.844101 23.9785 1.01071 25.3939 1.32489C20.9317 2.31689 17.0258 4.78381 14.2199 8.19212C13.3788 8.12231 12.5287 8.08736 11.6696 8.08736Z" fill="#CCCCCC"/>
<path id="Vector_10" d="M25.3916 40.6748C23.9807 40.989 22.5147 41.1544 21.0105 41.1556H21.0003C13.1547 41.1556 6.35725 36.6743 3.0267 30.1302C5.14466 27.9504 7.43144 25.9372 9.86687 24.112C10.1968 26.2479 10.8622 28.2723 11.8091 30.1302C14.4991 35.4166 19.4522 39.3563 25.3916 40.6748Z" fill="#CCCCCC"/>
</g>
<path id="Vector_11" d="M40.1734 12.4212C37.6996 6.89972 32.9718 2.71178 27.2021 0.931053C25.2006 0.313277 23.114 0 21.0002 0C17.6585 0 14.4637 0.761905 11.5046 2.26463C8.68269 3.69763 6.17771 5.79131 4.26032 8.31935C1.47323 11.9923 0.00019455 16.3773 0.00019455 21C0.00019455 24.3495 0.765299 27.5504 2.2741 30.5138C4.00528 33.915 6.63265 36.7847 9.87239 38.8127C13.2034 40.8978 17.0513 42 21.011 42C25.514 41.9976 29.8065 40.5908 33.4244 37.9316C36.9691 35.3261 39.5689 31.7519 40.9426 27.5953C41.6443 25.4742 42.0002 23.2552 42.0002 21C42.0001 18.012 41.3855 15.1257 40.1734 12.4212ZM38.3238 12.4604C37.1947 12.2696 35.6542 12.1882 33.9656 12.6042C33.696 12.2224 33.39 11.8586 33.0496 11.5187C32.2669 10.7352 31.377 10.1398 30.4513 9.7745C30.0089 7.52734 29.3564 5.32562 28.5051 3.20208C32.7678 4.99889 36.2613 8.28046 38.3238 12.4604ZM30.636 17.3346C30.6248 17.3295 30.6135 17.3246 30.6019 17.32C29.8997 17.0379 29.2088 16.569 28.6037 15.964C28.249 15.6092 27.9415 15.2263 27.6895 14.8247C27.0604 13.8251 26.8121 12.7478 27.0416 12.0131C27.109 11.798 27.2168 11.6155 27.3617 11.4707C27.7947 11.0376 28.5629 10.9457 29.4695 11.2188C30.2933 11.467 31.1405 11.9974 31.8556 12.7133C32.2556 13.1125 32.5956 13.5492 32.8661 14.0111C33.5635 15.2018 33.6987 16.4371 33.1969 17.092C33.168 17.1305 33.1344 17.1689 33.0973 17.2062C32.6096 17.6936 31.669 17.7423 30.636 17.3346ZM12.2692 3.77056C14.9892 2.38924 17.9268 1.68886 21.0002 1.68886C22.8185 1.68886 24.6143 1.94069 26.3441 2.43764C27.3503 4.66363 28.1219 6.992 28.6443 9.37927C27.6571 9.34818 26.7903 9.65358 26.1675 10.2763C26.0607 10.3832 25.9639 10.4982 25.8754 10.6196C21.4988 8.40819 16.6065 7.24236 11.6697 7.24236C10.1476 7.24236 8.62814 7.3536 7.12837 7.57016C8.6201 6.03175 10.3658 4.73713 12.2692 3.77056ZM1.68913 21C1.68913 16.8534 2.97833 12.9156 5.41974 9.59042C7.46297 9.15467 9.56346 8.9313 11.6694 8.9313C16.4078 8.9313 21.1021 10.0657 25.2873 12.2156C25.2064 13.0161 25.3708 13.9015 25.7608 14.7857C17.3556 17.6341 9.62334 22.414 3.27676 28.6815C2.22291 26.2614 1.68913 23.6829 1.68913 21ZM4.06303 30.2827C10.3864 23.9128 18.1693 19.0835 26.642 16.2724C26.8742 16.5804 27.1289 16.8777 27.4095 17.1582C28.0185 17.7672 28.7051 18.2679 29.4197 18.6326C29.0448 26.6316 25.9404 34.2926 20.635 40.3047C17.132 40.239 13.7278 39.2335 10.7684 37.381C7.95992 35.623 5.65238 33.1769 4.06303 30.2827ZM22.9212 40.2154C27.7524 34.2431 30.6143 26.8899 31.0796 19.2154C31.3773 19.2713 31.6683 19.3007 31.949 19.3007C32.6494 19.3007 33.2872 19.127 33.8144 18.7859C37.2047 22.6252 38.5062 26.9018 38.2903 29.6153C35.346 35.5396 29.555 39.5573 22.9212 40.2154ZM39.6341 26.0831C38.8559 22.9197 36.9575 19.7664 34.9097 17.4788C35.3153 16.5405 35.2787 15.3607 34.806 14.1501C36.7379 13.7841 38.4066 14.1622 39.1485 14.3861C39.9197 16.4975 40.3113 18.7161 40.3113 21.0001C40.3112 22.729 40.0831 24.4341 39.6341 26.0831Z" fill="#333333"/>
<g id="Group_4">
<path id="Vector_12" d="M28.2778 37.5888C27.9587 37.5888 27.6535 37.4072 27.5108 37.0987C27.315 36.6754 27.4993 36.1735 27.9226 35.9777C28.5864 35.6706 29.2362 35.315 29.8538 34.9212C32.4275 33.28 34.4945 30.9668 35.8309 28.2319C36.1555 27.5668 36.4366 26.8767 36.6662 26.1812C37.2167 24.5175 37.4956 22.7745 37.4956 20.9999C37.4956 18.941 37.1227 16.9351 36.3874 15.0382C36.2833 14.771 36.1743 14.5101 36.0639 14.264C35.0921 12.0954 33.6974 10.1994 31.9181 8.6281C31.5686 8.31933 31.5355 7.7858 31.8441 7.43619C32.1529 7.08665 32.6864 7.05351 33.0362 7.36219C34.9972 9.09395 36.5344 11.1834 37.605 13.5728C37.727 13.8444 37.847 14.1318 37.9619 14.4267C38.7735 16.5202 39.1846 18.7315 39.1846 20.9999C39.1846 22.9552 38.8769 24.8766 38.2699 26.7111C38.0167 27.4783 37.7068 28.2395 37.3486 28.9731C35.8754 31.9879 33.5978 34.537 30.7619 36.3453C30.0808 36.7796 29.3642 37.1716 28.6318 37.5105C28.517 37.5635 28.3964 37.5888 28.2778 37.5888Z" fill="white"/>
<path id="Vector_13" d="M30.7004 7.46466C31.1667 7.46466 31.5448 7.0866 31.5448 6.62023C31.5448 6.15387 31.1667 5.7758 30.7004 5.7758C30.234 5.7758 29.856 6.15387 29.856 6.62023C29.856 7.0866 30.234 7.46466 30.7004 7.46466Z" fill="white"/>
</g>
</g>
</g>
<defs>
<clipPath id="clip0_5_920">
<rect width="42" height="42" fill="white"/>
</clipPath>
</defs>
</svg>
