<svg width="42" height="42" viewBox="0 0 42 42" fill="none" xmlns="http://www.w3.org/2000/svg">
<g id="toys-icon">
<g id="baby-toy-toys-svgrepo-com 2">
<path id="Vector" d="M41.1429 36.0857C41.1429 38.8787 38.8787 41.1429 36.0857 41.1429H5.91429C3.12129 41.1429 0.857143 38.8787 0.857143 36.0857C0.857143 33.2927 3.12129 31.0286 5.91429 31.0286H36.0857C38.8787 31.0286 41.1429 33.2927 41.1429 36.0857Z" fill="#0084FF"/>
<path id="Vector_2" d="M37.4571 25.9714C37.4571 28.7644 35.193 31.0286 32.4 31.0286H9.60004C6.80704 31.0286 4.54289 28.7644 4.54289 25.9714C4.54289 23.1784 6.80704 20.9143 9.60004 20.9143H32.4C35.193 20.9143 37.4571 23.1784 37.4571 25.9714Z" fill="#FFD41D"/>
<path id="Vector_3" d="M32.9839 15.8571C32.9839 18.6501 30.7197 20.9143 27.9267 20.9143H14.0732C11.2802 20.9143 9.01605 18.6501 9.01605 15.8571C9.01605 13.0641 11.2802 10.8 14.0732 10.8H27.9267C30.7197 10.8 32.9839 13.0641 32.9839 15.8571Z" fill="#F3437F"/>
<path id="Vector_4" d="M21 10.8C23.7456 10.8 25.9714 8.57421 25.9714 5.82857C25.9714 3.08293 23.7456 0.857147 21 0.857147C18.2544 0.857147 16.0286 3.08293 16.0286 5.82857C16.0286 8.57421 18.2544 10.8 21 10.8Z" fill="#1EB615"/>
<path id="Vector_5" d="M16.8075 38.3143C16.807 38.3143 16.8063 38.3143 16.8057 38.3143H16.7857C16.3124 38.3132 15.9293 37.9287 15.9304 37.4553C15.9315 36.9826 16.3149 36.6 16.7874 36.6C16.788 36.6 16.7887 36.6 16.7893 36.6H16.8094C17.2828 36.601 17.6658 36.9855 17.6648 37.4589C17.6636 37.9317 17.28 38.3143 16.8075 38.3143Z" fill="black"/>
<path id="Vector_6" d="M14.0144 38.3143H5.68895C5.21555 38.3143 4.83181 37.9305 4.83181 37.4571C4.83181 36.9837 5.21555 36.6 5.68895 36.6H14.0145C14.4879 36.6 14.8716 36.9837 14.8716 37.4571C14.8715 37.9305 14.4878 38.3143 14.0144 38.3143Z" fill="black"/>
<path id="Vector_7" d="M36.5392 30.1905C37.6336 29.1166 38.3143 27.6223 38.3143 25.9714C38.3143 22.7103 35.6612 20.0571 32.4 20.0571H32.086C33.1689 18.9846 33.8411 17.4982 33.8411 15.8571C33.8411 12.596 31.188 9.94284 27.9268 9.94284H25.1244C26.1769 8.88776 26.8286 7.43285 26.8286 5.82857C26.8286 2.61475 24.2138 0 21 0C17.7862 0 15.1714 2.61475 15.1714 5.82857C15.1714 7.43285 15.8231 8.88776 16.8755 9.94284H14.0732C10.812 9.94284 8.15891 12.596 8.15891 15.8571C8.15891 17.4982 8.83107 18.9846 9.91397 20.0571H9.60003C6.33888 20.0571 3.68575 22.7103 3.68575 25.9714C3.68575 27.6223 4.36644 29.1166 5.4609 30.1905C2.41098 30.4231 0 32.9773 0 36.0857C0 39.3469 2.65314 42 5.91429 42H36.0857C39.3469 42 42 39.3469 42 36.0857C42 32.9773 39.589 30.4231 36.5392 30.1905ZM16.8857 5.82857C16.8857 3.55999 18.7314 1.71429 21 1.71429C23.2686 1.71429 25.1143 3.55999 25.1143 5.82857C25.1143 8.09714 23.2686 9.94284 21 9.94284C18.7314 9.94284 16.8857 8.09714 16.8857 5.82857ZM9.8732 15.8571C9.8732 13.5412 11.7573 11.6571 14.0732 11.6571H27.9267C30.2426 11.6571 32.1267 13.5412 32.1267 15.8571C32.1267 18.173 30.2426 20.0571 27.9267 20.0571H14.0732C11.7574 20.0571 9.8732 18.173 9.8732 15.8571ZM5.40004 25.9714C5.40004 23.6555 7.28413 21.7714 9.60003 21.7714H32.4C34.716 21.7714 36.6 23.6555 36.6 25.9714C36.6 28.2873 34.716 30.1714 32.4 30.1714H9.60003C7.28405 30.1714 5.40004 28.2873 5.40004 25.9714ZM36.0857 40.2857H5.91429C3.59838 40.2857 1.71429 38.4016 1.71429 36.0857C1.71429 33.7698 3.59838 31.8857 5.91429 31.8857H36.0857C38.4016 31.8857 40.2857 33.7698 40.2857 36.0857C40.2857 38.4016 38.4016 40.2857 36.0857 40.2857Z" fill="black"/>
</g>
</g>
</svg>
