<svg width="42" height="42" viewBox="0 0 42 42" fill="none" xmlns="http://www.w3.org/2000/svg">
<g id="watch-icon">
<g id="watch-svgrepo-com 1">
<g id="Group">
<path id="Vector" d="M19.3809 5.56998C21.685 5.56998 23.8784 6.08202 25.8504 6.99533L24.4043 2.33171H14.3714L12.9252 6.99544C14.8765 6.08202 17.0699 5.56998 19.3809 5.56998Z" fill="#56ACE0"/>
<path id="Vector_2" d="M19.3809 36.43C17.0768 36.43 14.8834 35.918 12.9114 35.0047L14.3576 39.6683H24.3905L25.8366 35.0047C23.8784 35.918 21.685 36.43 19.3809 36.43Z" fill="#56ACE0"/>
</g>
<path id="Vector_3" d="M19.3809 7.90178C12.1572 7.90178 6.2827 13.7832 6.2827 21C6.2827 28.2168 12.164 34.0982 19.3809 34.0982C26.5978 34.0982 32.4791 28.2169 32.4791 21C32.4791 13.7831 26.6046 7.90178 19.3809 7.90178Z" fill="white"/>
<path id="Vector_4" d="M36.8866 17.5612C36.2432 17.5612 35.7173 18.08 35.7173 18.7305V19.8375H34.7693C34.4302 15.3815 32.1954 11.4445 28.8672 8.83586L26.3762 0.816444C26.2171 0.325165 25.7743 0 25.2623 0H13.5064C12.9944 0 12.5446 0.332122 12.3924 0.816444L9.90148 8.83597C6.27575 11.6591 3.94394 16.0597 3.94394 21.0001C3.94394 25.9405 6.27575 30.3412 9.90148 33.1641L12.3924 41.1836C12.5446 41.6748 12.9944 42 13.5064 42H25.2623C25.7743 42 26.224 41.6679 26.3762 41.1836L28.8672 33.1641C32.2024 30.5555 34.4303 26.6254 34.7693 22.1625H35.7173V23.2695C35.7173 23.913 36.2362 24.4388 36.8866 24.4388C37.5301 24.4388 38.056 23.92 38.056 23.2695V18.7235C38.0561 18.08 37.5301 17.5612 36.8866 17.5612ZM14.3644 39.6751L12.9183 35.0115C14.8834 35.918 17.0768 36.4369 19.3878 36.4369C21.6987 36.4369 23.8853 35.9248 25.8572 35.0115L24.4111 39.6751H14.3644ZM19.3809 34.0982C12.1572 34.0982 6.28271 28.2169 6.28271 21C6.28271 13.7831 12.164 7.90178 19.3809 7.90178C26.5978 7.90178 32.4791 13.7832 32.4791 21C32.4791 28.2168 26.6047 34.0982 19.3809 34.0982ZM24.3973 2.32485L25.8434 6.98848C23.8783 6.08202 21.6849 5.56312 19.374 5.56312C17.063 5.56312 14.8765 6.07517 12.9045 6.98848L14.3506 2.32485C14.3575 2.32485 24.3973 2.32485 24.3973 2.32485Z" fill="#194F82"/>
<path id="Vector_5" d="M24.8402 19.4916C24.7156 19.0349 24.5358 18.5991 24.3006 18.1907C24.0445 17.734 24.1206 17.1598 24.4873 16.7861L25.5598 15.7137L24.6533 14.8072L23.5809 15.8797C23.2072 16.2533 22.6399 16.3294 22.1763 16.0664C21.7681 15.8381 21.3391 15.6513 20.8754 15.5268C20.3703 15.3884 20.0174 14.9248 20.0174 14.399V12.8836H18.7305V14.4058C18.7305 14.9317 18.3776 15.3884 17.8725 15.5336C17.4158 15.6582 16.98 15.838 16.5716 16.0733C16.1149 16.3363 15.5407 16.2532 15.1671 15.8865L14.0946 14.8141L13.1881 15.7205L14.2606 16.793C14.6342 17.1666 14.7103 17.734 14.4474 18.1976C14.2191 18.6058 14.0322 19.0348 13.9077 19.4984C13.7693 20.0035 13.3126 20.3564 12.7799 20.3564H11.2577V21.6434H12.7799C13.3058 21.6434 13.7625 21.9963 13.9077 22.5014C14.0323 22.9581 14.2121 23.3939 14.4474 23.8022C14.7034 24.2589 14.6273 24.8332 14.2606 25.2068L13.1881 26.2793L14.0946 27.1857L15.1671 26.1133C15.5407 25.7396 16.115 25.6635 16.5716 25.9265C16.9799 26.1548 17.4089 26.3347 17.8725 26.4662C18.3776 26.6046 18.7305 27.0681 18.7305 27.594V29.1024H20.0174V27.5802C20.0174 27.0543 20.3634 26.5976 20.8754 26.4524C21.3321 26.3278 21.768 26.148 22.1763 25.9127C22.633 25.6497 23.2072 25.7328 23.5809 26.0995L24.6533 27.1719L25.5598 26.2655L24.4873 25.193C24.1137 24.8194 24.0376 24.252 24.3006 23.7884C24.5289 23.3802 24.7157 22.9443 24.8402 22.4875C24.9786 21.9825 25.4353 21.6296 25.968 21.6296H27.4902V20.3426H25.968C25.4352 20.3565 24.9786 20.0106 24.8402 19.4916ZM19.3809 24.688C17.3467 24.688 15.6929 23.0343 15.6929 21C15.6929 18.9657 17.3467 17.312 19.3809 17.312C21.4152 17.312 23.0689 18.9657 23.0689 21C23.0689 23.0343 21.4152 24.688 19.3809 24.688Z" fill="#FFC10D"/>
<g id="Group_2">
<path id="Vector_6" d="M28.6527 18.0247H26.7984C26.7707 17.9694 26.7568 17.914 26.7292 17.8586L28.037 16.5509C28.4937 16.0942 28.4937 15.3608 28.037 14.8971L25.4699 12.3301C25.0132 11.8734 24.2798 11.8734 23.8161 12.3301L22.5084 13.6379C22.4531 13.6102 22.3977 13.5894 22.3423 13.5687V11.7144C22.3423 11.0709 21.8234 10.5451 21.173 10.5451H17.5472C16.9038 10.5451 16.3779 11.064 16.3779 11.7144V13.5687C16.3226 13.5965 16.2672 13.6103 16.2118 13.6379L14.9042 12.3301C14.4475 11.8734 13.7141 11.8734 13.2504 12.3301L10.6833 14.8972C10.2266 15.3539 10.2266 16.0873 10.6833 16.551L11.9911 17.8587C11.9633 17.914 11.9426 17.9694 11.9219 18.0248H10.0676C9.4241 18.0248 8.89825 18.5437 8.89825 19.1941V22.8199C8.89825 23.4634 9.41715 23.9892 10.0676 23.9892H11.9219C11.9496 24.0445 11.9635 24.0999 11.9911 24.1552L10.6833 25.4629C10.2266 25.9196 10.2266 26.653 10.6833 27.1167L13.2504 29.6838C13.7071 30.1405 14.4405 30.1405 14.9042 29.6838L16.2119 28.376C16.2672 28.4038 16.3226 28.4245 16.378 28.4452V30.2995C16.378 30.943 16.8969 31.4689 17.5473 31.4689H21.1731C21.8165 31.4689 22.3424 30.95 22.3424 30.2995V28.4452C22.3977 28.4175 22.4531 28.4037 22.5085 28.376L23.8162 29.6838C24.2729 30.1405 25.0063 30.1405 25.47 29.6838L28.0371 27.1167C28.4938 26.66 28.4938 25.9266 28.0371 25.4629L26.7293 24.1552C26.7571 24.0999 26.7778 24.0445 26.7985 23.9891H28.6528C29.2963 23.9891 29.8222 23.4702 29.8222 22.8198V19.194C29.8152 18.5437 29.2962 18.0247 28.6527 18.0247ZM27.4834 21.6435H25.9612C25.4353 21.6435 24.9786 21.9964 24.8334 22.5015C24.7088 22.9582 24.529 23.394 24.2937 23.8023C24.0377 24.259 24.1138 24.8333 24.4805 25.2069L25.5529 26.2794L24.6465 27.1858L23.5809 26.1202C23.2072 25.7466 22.6398 25.6705 22.1763 25.9335C21.7681 26.1618 21.3391 26.3417 20.8754 26.4731C20.3703 26.6115 20.0174 27.0751 20.0174 27.6009V29.1163H18.7305V27.5941C18.7305 27.0682 18.3845 26.6115 17.8725 26.4663C17.4158 26.3417 16.98 26.1619 16.5716 25.9266C16.1149 25.6636 15.5407 25.7467 15.167 26.1134L14.0946 27.1858L13.1881 26.2794L14.2606 25.2069C14.6342 24.8333 14.7103 24.2659 14.4474 23.8023C14.2191 23.3941 14.0322 22.9582 13.9077 22.5015C13.7693 21.9964 13.3126 21.6435 12.7799 21.6435H11.2577V20.3565H12.7799C13.3057 20.3565 13.7625 20.0036 13.9077 19.4985C14.0323 19.0418 14.2121 18.606 14.4474 18.1977C14.7034 17.741 14.6273 17.1667 14.2606 16.7931L13.1881 15.7206L14.0946 14.8142L15.167 15.8866C15.5407 16.2603 16.115 16.3364 16.5716 16.0734C16.9799 15.8451 17.4088 15.6582 17.8725 15.5337C18.3776 15.3953 18.7305 14.9318 18.7305 14.4059V12.8975H20.0174V14.4197C20.0174 14.9456 20.3703 15.4023 20.8754 15.5475C21.3321 15.6721 21.768 15.8519 22.1763 16.0872C22.633 16.3502 23.2072 16.2671 23.5809 15.9004L24.6533 14.828L25.5598 15.7344L24.4873 16.8069C24.1137 17.1805 24.0376 17.7479 24.3006 18.2115C24.5289 18.6197 24.7157 19.0487 24.8402 19.5124C24.9786 20.0174 25.4353 20.3703 25.968 20.3703H27.4902V21.6435H27.4834Z" fill="#194F82"/>
<path id="Vector_7" d="M19.3809 17.312C17.3467 17.312 15.6929 18.9657 15.6929 21C15.6929 23.0343 17.3467 24.688 19.3809 24.688C21.4152 24.688 23.0689 23.0343 23.0689 21C23.0689 18.9657 21.4152 17.312 19.3809 17.312ZM19.3809 22.3562C18.6336 22.3562 18.0247 21.7473 18.0247 21C18.0247 20.2527 18.6336 19.6438 19.3809 19.6438C20.1282 19.6438 20.7371 20.2527 20.7371 21C20.737 21.7473 20.1282 22.3562 19.3809 22.3562Z" fill="#194F82"/>
</g>
</g>
</g>
</svg>
