<svg width="387" height="286" viewBox="0 0 387 286" fill="none" xmlns="http://www.w3.org/2000/svg">
<g clip-path="url(#clip0_6_2318)">
<path d="M109.125 250.639C110.534 239.315 117.552 228.158 128.351 224.473C124.092 236.128 124.093 248.915 128.354 260.569C130.014 265.058 132.327 269.878 130.766 274.402C129.794 277.217 127.419 279.371 124.763 280.718C122.107 282.065 119.159 282.706 116.248 283.335L115.675 283.809C111.055 273.375 107.717 261.963 109.125 250.639Z" fill="#F0F0F0"/>
<path d="M128.459 224.687C122.169 231.734 118.26 240.583 117.287 249.978C117.042 251.997 117.116 254.042 117.507 256.037C117.951 257.969 118.904 259.747 120.268 261.185C121.512 262.552 122.943 263.807 123.833 265.452C124.276 266.301 124.535 267.235 124.592 268.191C124.649 269.147 124.504 270.104 124.165 271C123.379 273.255 121.83 275.092 120.253 276.837C118.501 278.773 116.651 280.757 115.907 283.325C115.817 283.636 115.339 283.478 115.429 283.167C116.725 278.7 121.061 276.163 123.129 272.139C124.094 270.262 124.499 268.082 123.594 266.1C122.803 264.367 121.329 263.073 120.057 261.699C118.706 260.315 117.715 258.622 117.17 256.766C116.679 254.797 116.526 252.758 116.718 250.738C117.078 246.182 118.153 241.711 119.902 237.489C121.872 232.659 124.653 228.201 128.126 224.309C128.341 224.069 128.672 224.447 128.459 224.687L128.459 224.687Z" fill="white"/>
<path d="M117.422 246.934C115.868 246.557 114.499 245.64 113.559 244.346C112.619 243.052 112.169 241.466 112.29 239.872C112.296 239.807 112.326 239.746 112.375 239.703C112.425 239.661 112.488 239.638 112.554 239.642C112.619 239.645 112.68 239.673 112.725 239.721C112.769 239.768 112.794 239.832 112.793 239.897C112.677 241.381 113.096 242.859 113.974 244.062C114.852 245.264 116.131 246.114 117.58 246.457C117.895 246.532 117.735 247.009 117.422 246.934Z" fill="white"/>
<path d="M119.545 260.575C122.352 258.899 124.424 256.227 125.349 253.091C125.44 252.78 125.917 252.938 125.826 253.249C124.858 256.51 122.696 259.287 119.772 261.024C119.493 261.19 119.268 260.74 119.545 260.575Z" fill="white"/>
<path d="M122.338 233.135C122.909 233.406 123.539 233.532 124.17 233.5C124.801 233.468 125.414 233.279 125.955 232.951C126.232 232.783 126.456 233.233 126.181 233.401C125.582 233.76 124.905 233.967 124.207 234.004C123.51 234.041 122.814 233.907 122.181 233.613C122.119 233.59 122.068 233.544 122.038 233.485C122.008 233.426 122.002 233.358 122.021 233.295C122.042 233.232 122.087 233.18 122.147 233.15C122.206 233.12 122.275 233.115 122.338 233.135Z" fill="white"/>
<path d="M161.27 244.699C161.101 244.809 160.931 244.919 160.761 245.034C158.487 246.53 156.337 248.207 154.335 250.051C154.178 250.191 154.02 250.336 153.868 250.48C149.09 254.973 145.188 260.314 142.36 266.232C141.237 268.588 140.295 271.025 139.542 273.524C138.502 276.975 137.649 280.8 135.59 283.622C135.379 283.919 135.149 284.203 134.902 284.471H116.298C116.256 284.45 116.213 284.433 116.171 284.412L115.428 284.446C115.458 284.314 115.491 284.178 115.521 284.047C115.538 283.97 115.559 283.894 115.576 283.818C115.589 283.767 115.602 283.716 115.61 283.669C115.615 283.652 115.619 283.635 115.623 283.622C115.632 283.576 115.644 283.533 115.653 283.491C115.84 282.731 116.032 281.971 116.23 281.211C116.23 281.207 116.23 281.207 116.234 281.203C117.688 275.399 119.825 269.788 122.601 264.487C122.686 264.33 122.771 264.169 122.865 264.012C124.15 261.666 125.625 259.428 127.275 257.322C128.182 256.172 129.147 255.068 130.165 254.016C132.803 251.301 135.851 249.017 139.198 247.25C145.871 243.726 153.596 242.377 160.727 244.529C160.91 244.584 161.088 244.639 161.27 244.699Z" fill="#F0F0F0"/>
<path d="M161.229 244.935C151.964 246.775 143.515 251.487 137.082 258.402C135.67 259.866 134.498 261.544 133.609 263.373C132.801 265.183 132.492 267.176 132.714 269.145C132.884 270.986 133.272 272.849 132.992 274.699C132.834 275.644 132.479 276.545 131.949 277.343C131.419 278.14 130.726 278.817 129.916 279.329C127.932 280.655 125.588 281.19 123.279 281.633C120.714 282.125 118.043 282.595 115.903 284.197C115.643 284.391 115.357 283.977 115.616 283.784C119.34 280.997 124.33 281.581 128.404 279.614C130.304 278.696 131.94 277.2 132.411 275.073C132.823 273.213 132.425 271.291 132.236 269.429C131.991 267.511 132.219 265.562 132.901 263.752C133.694 261.884 134.8 260.164 136.17 258.666C139.201 255.246 142.75 252.323 146.689 250.005C151.17 247.334 156.074 245.45 161.19 244.433C161.507 244.37 161.543 244.872 161.229 244.935H161.229Z" fill="white"/>
<path d="M139.022 256.054C138.008 254.817 137.467 253.26 137.496 251.661C137.524 250.062 138.12 248.525 139.177 247.325C139.391 247.082 139.778 247.405 139.563 247.647C138.577 248.763 138.022 250.195 137.998 251.684C137.975 253.173 138.485 254.621 139.436 255.767C139.642 256.017 139.227 256.302 139.022 256.054Z" fill="white"/>
<path d="M132.505 268.223C135.755 268.575 139.018 267.689 141.644 265.742C141.904 265.548 142.19 265.962 141.93 266.155C139.194 268.177 135.796 269.092 132.415 268.718C132.092 268.683 132.184 268.188 132.505 268.223Z" fill="white"/>
<path d="M151.255 247.996C151.548 248.556 151.975 249.035 152.498 249.389C153.022 249.744 153.625 249.963 154.254 250.026C154.576 250.058 154.484 250.553 154.164 250.521C153.469 250.448 152.803 250.205 152.224 249.815C151.645 249.424 151.171 248.898 150.842 248.282C150.806 248.226 150.793 248.159 150.804 248.094C150.816 248.029 150.852 247.971 150.905 247.932C150.96 247.894 151.028 247.88 151.093 247.892C151.159 247.904 151.217 247.941 151.255 247.996L151.255 247.996Z" fill="white"/>
<path d="M125.438 87.9846H63.8858C61.9837 87.9825 60.1601 87.2259 58.8151 85.8808C57.4701 84.5358 56.7136 82.7122 56.7115 80.8101V47.2857C56.7136 45.3836 57.4702 43.5601 58.8151 42.2151C60.1601 40.8702 61.9837 40.1137 63.8858 40.1116H125.438C127.34 40.1137 129.164 40.8702 130.509 42.2151C131.854 43.5601 132.61 45.3836 132.612 47.2857V80.8101C132.61 82.7122 131.854 84.5358 130.509 85.8808C129.164 87.2259 127.34 87.9825 125.438 87.9846Z" fill="#E6E6E6"/>
<path d="M219.411 87.9846H157.858C155.956 87.9825 154.133 87.2259 152.788 85.8808C151.443 84.5358 150.686 82.7122 150.684 80.8101V47.2857C150.686 45.3836 151.443 43.5601 152.788 42.2151C154.133 40.8702 155.956 40.1137 157.858 40.1116H219.411C221.313 40.1137 223.137 40.8702 224.482 42.2151C225.826 43.5601 226.583 45.3836 226.585 47.2857V80.8101C226.583 82.7122 225.827 84.5358 224.482 85.8808C223.137 87.2259 221.313 87.9824 219.411 87.9846Z" fill="#6A86EB"/>
<path d="M313.384 87.9846H251.831C249.929 87.9825 248.105 87.2259 246.76 85.8808C245.416 84.5358 244.659 82.7122 244.657 80.8101V47.2857C244.659 45.3836 245.416 43.5601 246.761 42.2151C248.106 40.8702 249.929 40.1137 251.831 40.1116H313.384C315.286 40.1137 317.109 40.8702 318.454 42.2151C319.799 43.5601 320.556 45.3836 320.558 47.2857V80.8101C320.556 82.7122 319.799 84.5358 318.454 85.8808C317.109 87.2259 315.286 87.9824 313.384 87.9846Z" fill="#E6E6E6"/>
<path d="M125.438 162.681H63.8858C61.9837 162.679 60.1601 161.922 58.8151 160.577C57.4701 159.232 56.7136 157.408 56.7115 155.506V121.982C56.7136 120.08 57.4702 118.256 58.8151 116.911C60.1601 115.566 61.9837 114.81 63.8858 114.808H125.438C127.34 114.81 129.164 115.566 130.509 116.911C131.854 118.256 132.61 120.08 132.612 121.982V155.506C132.61 157.408 131.854 159.232 130.509 160.577C129.164 161.922 127.34 162.679 125.438 162.681Z" fill="#F2F2F2"/>
<path d="M219.411 162.681H157.858C155.956 162.679 154.133 161.922 152.788 160.577C151.443 159.232 150.686 157.408 150.684 155.506V121.982C150.686 120.08 151.443 118.256 152.788 116.911C154.133 115.566 155.956 114.81 157.858 114.808H219.411C221.313 114.81 223.137 115.566 224.482 116.911C225.826 118.256 226.583 120.08 226.585 121.982V155.506C226.583 157.408 225.827 159.232 224.482 160.577C223.137 161.922 221.313 162.679 219.411 162.681Z" fill="#E6E6E6"/>
<path d="M223.757 168.85C229.829 168.85 234.75 163.928 234.75 157.856C234.75 151.785 229.829 146.863 223.757 146.863C217.685 146.863 212.764 151.785 212.764 157.856C212.764 163.928 217.685 168.85 223.757 168.85Z" fill="#6A86EB"/>
<path d="M228.322 156.933H224.584V153.195C224.584 153.08 224.562 152.965 224.517 152.859C224.473 152.752 224.408 152.655 224.327 152.573C224.245 152.492 224.148 152.427 224.041 152.383C223.935 152.339 223.82 152.316 223.705 152.316C223.589 152.316 223.475 152.339 223.368 152.383C223.262 152.427 223.165 152.492 223.083 152.573C223.001 152.655 222.936 152.752 222.892 152.859C222.848 152.965 222.825 153.08 222.825 153.195V156.933H219.088C218.972 156.933 218.858 156.956 218.751 157C218.644 157.044 218.547 157.109 218.466 157.191C218.384 157.272 218.319 157.369 218.275 157.476C218.231 157.583 218.208 157.697 218.208 157.813C218.208 157.928 218.231 158.043 218.275 158.149C218.319 158.256 218.384 158.353 218.466 158.435C218.547 158.516 218.644 158.581 218.751 158.625C218.858 158.669 218.972 158.692 219.088 158.692H222.825V162.43C222.825 162.545 222.848 162.66 222.892 162.767C222.936 162.873 223.001 162.97 223.083 163.052C223.165 163.134 223.262 163.198 223.368 163.243C223.475 163.287 223.589 163.309 223.705 163.309C223.938 163.309 224.162 163.217 224.327 163.052C224.492 162.887 224.584 162.663 224.584 162.43V158.692H228.322C228.438 158.692 228.552 158.669 228.659 158.625C228.765 158.581 228.862 158.516 228.944 158.435C229.026 158.353 229.09 158.256 229.135 158.149C229.179 158.042 229.202 157.928 229.202 157.813C229.202 157.697 229.179 157.583 229.135 157.476C229.09 157.369 229.026 157.272 228.944 157.191C228.862 157.109 228.765 157.044 228.659 157C228.552 156.956 228.438 156.933 228.322 156.933L228.322 156.933Z" fill="white"/>
<path d="M319.175 96.0812C325.247 96.0812 330.169 91.1592 330.169 85.0877C330.169 79.0162 325.247 74.0942 319.175 74.0942C313.104 74.0942 308.182 79.0162 308.182 85.0877C308.182 91.1592 313.104 96.0812 319.175 96.0812Z" fill="#6A86EB"/>
<path d="M323.741 84.1645H320.003V80.4267C320.003 80.3112 319.98 80.1969 319.936 80.0901C319.892 79.9834 319.827 79.8865 319.745 79.8048C319.663 79.7231 319.567 79.6583 319.46 79.6141C319.353 79.5699 319.239 79.5472 319.123 79.5472C319.008 79.5472 318.893 79.5699 318.787 79.6141C318.68 79.6583 318.583 79.7231 318.501 79.8048C318.42 79.8865 318.355 79.9834 318.311 80.0901C318.266 80.1968 318.244 80.3112 318.244 80.4267V84.1645H314.506C314.39 84.1645 314.276 84.1872 314.169 84.2314C314.063 84.2756 313.966 84.3404 313.884 84.4221C313.802 84.5038 313.738 84.6007 313.693 84.7074C313.649 84.8142 313.626 84.9285 313.626 85.044C313.626 85.1595 313.649 85.2739 313.693 85.3806C313.738 85.4873 313.802 85.5843 313.884 85.666C313.966 85.7476 314.063 85.8124 314.169 85.8566C314.276 85.9008 314.39 85.9236 314.506 85.9236H318.244V89.6613C318.244 89.7768 318.266 89.8912 318.311 89.9979C318.355 90.1046 318.42 90.2016 318.501 90.2833C318.583 90.3649 318.68 90.4297 318.787 90.4739C318.893 90.5181 319.008 90.5409 319.123 90.5409C319.357 90.5409 319.58 90.4482 319.745 90.2833C319.91 90.1183 320.003 89.8946 320.003 89.6613V85.9235H323.74C323.856 85.9235 323.97 85.9008 324.077 85.8566C324.184 85.8124 324.281 85.7476 324.362 85.6659C324.444 85.5843 324.509 85.4873 324.553 85.3806C324.597 85.2739 324.62 85.1595 324.62 85.044C324.62 84.9285 324.597 84.8141 324.553 84.7074C324.509 84.6007 324.444 84.5037 324.362 84.4221C324.281 84.3404 324.184 84.2756 324.077 84.2314C323.97 84.1872 323.856 84.1645 323.74 84.1645L323.741 84.1645Z" fill="white"/>
<path d="M129.784 95.1173C135.856 95.1173 140.778 90.1954 140.778 84.1238C140.778 78.0523 135.856 73.1304 129.784 73.1304C123.713 73.1304 118.791 78.0523 118.791 84.1238C118.791 90.1954 123.713 95.1173 129.784 95.1173Z" fill="#6A86EB"/>
<path d="M134.349 83.2007H130.612V79.4629C130.612 79.3474 130.589 79.233 130.545 79.1263C130.5 79.0196 130.436 78.9226 130.354 78.841C130.272 78.7593 130.175 78.6945 130.069 78.6503C129.962 78.6061 129.848 78.5833 129.732 78.5833C129.617 78.5833 129.502 78.6061 129.395 78.6503C129.289 78.6945 129.192 78.7593 129.11 78.841C129.028 78.9226 128.964 79.0196 128.919 79.1263C128.875 79.233 128.853 79.3474 128.853 79.4629V83.2007H125.115C124.999 83.2007 124.885 83.2234 124.778 83.2676C124.671 83.3118 124.575 83.3766 124.493 83.4583C124.411 83.5399 124.346 83.6369 124.302 83.7436C124.258 83.8503 124.235 83.9647 124.235 84.0802C124.235 84.3135 124.328 84.5372 124.493 84.7021C124.658 84.8671 124.881 84.9597 125.115 84.9597H128.853V88.6975C128.853 88.813 128.875 88.9274 128.919 89.0341C128.964 89.1408 129.028 89.2378 129.11 89.3194C129.192 89.4011 129.289 89.4659 129.395 89.5101C129.502 89.5543 129.617 89.577 129.732 89.577C129.848 89.577 129.962 89.5543 130.069 89.5101C130.175 89.4659 130.272 89.4011 130.354 89.3194C130.436 89.2378 130.5 89.1408 130.545 89.0341C130.589 88.9274 130.612 88.813 130.612 88.6975V84.9597H134.349C134.465 84.9597 134.579 84.937 134.686 84.8928C134.793 84.8486 134.89 84.7838 134.971 84.7021C135.053 84.6204 135.118 84.5235 135.162 84.4168C135.206 84.31 135.229 84.1957 135.229 84.0802C135.229 83.8469 135.136 83.6232 134.971 83.4582C134.806 83.2933 134.583 83.2006 134.349 83.2006V83.2007Z" fill="white"/>
<path d="M212.09 68.9372C212.291 69.5439 212.356 70.1872 212.281 70.8218C212.206 71.4564 211.993 72.0668 211.656 72.6101C211.32 73.1533 210.869 73.6163 210.334 73.9662C209.799 74.3162 209.195 74.5447 208.562 74.6356L203.479 109.334L195.14 105.261L203.527 70.6259C203.445 69.5532 203.759 68.4877 204.41 67.6311C205.061 66.7745 206.003 66.1864 207.059 65.9783C208.114 65.7701 209.209 65.9564 210.137 66.5017C211.064 67.0471 211.759 67.9137 212.09 68.9372L212.09 68.9372Z" fill="#9E616A"/>
<path d="M151.376 180.066C151.747 179.546 152 178.951 152.116 178.322C152.232 177.694 152.209 177.048 152.049 176.429C151.888 175.811 151.594 175.235 151.187 174.743C150.78 174.25 150.27 173.853 149.693 173.579L153.122 136.671L145.94 140.353L143.697 175.918C143.301 176.918 143.285 178.029 143.653 179.04C144.021 180.051 144.747 180.891 145.694 181.403C146.64 181.914 147.742 182.06 148.789 181.814C149.836 181.568 150.756 180.946 151.376 180.066H151.376Z" fill="#9E616A"/>
<path d="M156.283 161.399L187.106 160.213L188.885 128.204H153.319L156.283 161.399Z" fill="#9E616A"/>
<path d="M150.562 274.441L155.829 274.441L158.335 254.125H150.561L150.562 274.441Z" fill="#9E616A"/>
<path d="M149.256 271.843L157.582 271.346V274.913L165.498 280.38C165.889 280.65 166.184 281.038 166.338 281.487C166.493 281.937 166.501 282.424 166.359 282.877C166.218 283.331 165.935 283.727 165.552 284.009C165.17 284.291 164.707 284.442 164.232 284.442H154.319L152.61 280.914L151.943 284.442H148.206L149.256 271.843Z" fill="#2F2E41"/>
<path d="M173.99 274.441L179.257 274.441L181.762 254.125H173.989L173.99 274.441Z" fill="#9E616A"/>
<path d="M155.855 153.885C155.855 153.885 146.633 161.33 151.632 187.921C150.871 188.012 151.733 189.513 151.733 189.513L152.454 211.179L153.012 213.662L151.158 217.669L151.922 222.023L149.567 261.536L158.269 262.661L166.596 221.629L168.182 217.016L169.773 212.973L168.915 208.661L169.619 201.968L174.419 179.4L175.595 218.54L173.955 222.277L174.867 226.379L172.834 228.556L172.031 265.177L181.309 265.611L188.987 228.695L188.392 223.984L189.413 220.501V212.364L191.162 208.525L194.976 187.587C194.976 187.587 196.127 171.222 187.732 151.964L155.855 153.885Z" fill="#2F2E41"/>
<path d="M159.614 101.602C159.614 101.602 147.965 103.905 145.958 113.84C143.951 123.774 142.66 146.254 142.66 146.254L143.099 149.385L154.367 151.998L161.559 120.499L159.614 101.602Z" fill="#3F3D56"/>
<path d="M186.198 104.955C186.198 104.955 187.378 103.3 193.991 103.045C194.263 103.035 193.926 102.495 193.926 102.495L197.106 86.9516L207.703 92.819L205.914 109.114L188.5 128.921L186.198 104.955Z" fill="#3F3D56"/>
<path d="M179.592 151.291C174.603 151.292 167.093 150.741 155.788 149.063C155.059 148.953 154.385 148.613 153.864 148.093C153.343 147.573 153.001 146.9 152.89 146.172C152.52 145.782 152.28 145.288 152.202 144.757C152.123 144.225 152.21 143.683 152.45 143.203L152.461 143.182L152.205 142.88C151.809 142.415 151.576 141.833 151.542 141.222C151.509 140.612 151.676 140.008 152.018 139.502L148.517 114.454C148.162 111.967 148.706 109.435 150.051 107.312C151.396 105.19 153.454 103.618 155.856 102.878L157.148 102.476L162.036 96.0824L162.132 96.0835L177.824 96.2924L182.916 102.759L191.147 104.7L191.169 104.825L193.08 115.868C194.074 121.611 191.794 123.87 188.884 128.921L189.738 143.106L190.126 143.809C190.341 144.199 190.413 144.652 190.33 145.089C190.246 145.526 190.013 145.92 189.669 146.203C189.929 146.945 189.947 147.751 189.72 148.503L189.518 149.169C189.519 149.188 189.465 149.458 189.03 149.788C188.247 150.383 185.997 151.291 179.592 151.291Z" fill="#3F3D56"/>
<path d="M172.683 271.843L181.01 271.346V274.913L188.926 280.38C189.317 280.65 189.611 281.038 189.766 281.487C189.921 281.937 189.928 282.424 189.787 282.877C189.646 283.331 189.363 283.727 188.98 284.009C188.597 284.291 188.135 284.442 187.659 284.442H177.747L176.038 280.914L175.371 284.442H171.633L172.683 271.843Z" fill="#2F2E41"/>
<path d="M181.428 82.1502C182.517 75.4439 177.962 69.1252 171.256 68.037C164.55 66.9487 158.231 71.503 157.143 78.2092C156.055 84.9155 160.609 91.2342 167.315 92.3224C174.021 93.4107 180.34 88.8564 181.428 82.1502Z" fill="#9E616A"/>
<path d="M176.479 68.1595C171.97 65.0586 168 64.5863 164.738 65.4658C164.315 64.8118 163.723 64.2854 163.023 63.9429C160.479 57.5334 152.738 53.6842 146.095 55.5554C139.409 57.4386 134.795 64.8451 136.053 71.6766C136.833 75.9112 139.498 79.578 140.57 83.7482C142.645 91.8209 137.583 101.068 129.665 103.67C137.162 105.176 145.415 100.596 148.105 93.4378C149.411 89.9608 149.49 86.1646 149.656 82.454C149.7 79.8928 150.013 77.3433 150.592 74.848C150.879 73.7285 151.285 72.6428 151.802 71.6094C152.93 69.3378 154.802 67.5215 157.106 66.4636C156.9 67.1019 156.848 67.7801 156.956 68.4423C157.063 69.1044 157.327 69.7316 157.724 70.2719C155.966 72.4745 155.009 74.8565 155.009 76.2829C151.356 82.9587 156.579 88.6929 163.255 92.3453C165.918 93.8098 168.992 94.3458 171.994 93.8688L172.273 92.6765L172.651 93.7505L173.915 97.3509C175.372 98.0559 176.816 98.8287 178.248 99.6692C177.704 97.1144 177.264 94.5643 176.961 92.0709C176.542 88.6773 178.004 83.6251 179.058 80.5528C179.712 78.6592 180.047 76.6705 180.051 74.6673V74.5797L181.078 77.8773L184.815 76.2829C184.12 72.2946 184.815 67.7668 176.479 68.1595Z" fill="#2F2E41"/>
<path d="M330.193 285.053H56.8073C56.6556 285.052 56.5104 284.991 56.4034 284.884C56.2964 284.776 56.2364 284.631 56.2364 284.479C56.2364 284.327 56.2964 284.182 56.4034 284.074C56.5104 283.967 56.6556 283.906 56.8073 283.905H330.193C330.344 283.906 330.49 283.967 330.597 284.074C330.704 284.182 330.764 284.327 330.764 284.479C330.764 284.631 330.704 284.776 330.597 284.884C330.49 284.991 330.344 285.052 330.193 285.053Z" fill="#CCCCCC"/>
<path d="M293.936 152.983H255.377C254.186 152.981 253.043 152.507 252.201 151.665C251.358 150.822 250.884 149.68 250.883 148.488V127.487C250.884 126.296 251.358 125.153 252.201 124.311C253.043 123.468 254.186 122.994 255.377 122.993H293.936C295.128 122.994 296.27 123.468 297.113 124.311C297.955 125.153 298.429 126.296 298.431 127.487V148.488C298.429 149.68 297.955 150.822 297.113 151.665C296.27 152.507 295.128 152.981 293.936 152.983Z" fill="#F2F2F2"/>
<path d="M277.868 141.35C280.329 141.35 282.324 139.355 282.324 136.895C282.324 134.434 280.329 132.439 277.868 132.439C275.407 132.439 273.412 134.434 273.412 136.895C273.412 139.355 275.407 141.35 277.868 141.35Z" fill="#6A86EB"/>
<path d="M279.718 136.52H278.203V135.005C278.203 134.959 278.194 134.912 278.176 134.869C278.158 134.826 278.132 134.787 278.099 134.753C278.066 134.72 278.027 134.694 277.983 134.676C277.94 134.658 277.894 134.649 277.847 134.649C277.752 134.649 277.662 134.687 277.595 134.753C277.528 134.82 277.49 134.911 277.49 135.005V136.52H275.976C275.881 136.52 275.79 136.558 275.723 136.625C275.657 136.692 275.619 136.782 275.619 136.877C275.619 136.924 275.628 136.97 275.646 137.013C275.664 137.057 275.69 137.096 275.723 137.129C275.757 137.162 275.796 137.188 275.839 137.206C275.882 137.224 275.929 137.233 275.976 137.233H277.49V138.748C277.49 138.795 277.5 138.841 277.518 138.885C277.535 138.928 277.562 138.967 277.595 139C277.628 139.033 277.667 139.06 277.711 139.078C277.754 139.095 277.8 139.105 277.847 139.105C277.941 139.105 278.032 139.067 278.099 139C278.166 138.933 278.203 138.843 278.203 138.748V137.233H279.718C279.813 137.233 279.904 137.196 279.97 137.129C280.037 137.062 280.075 136.971 280.075 136.877C280.075 136.83 280.066 136.784 280.048 136.74C280.03 136.697 280.003 136.658 279.97 136.625C279.937 136.592 279.898 136.565 279.855 136.548C279.811 136.53 279.765 136.52 279.718 136.52L279.718 136.52Z" fill="white"/>
<path d="M289.424 143.312H265.172C264.143 143.311 263.156 142.902 262.428 142.174C261.701 141.446 261.291 140.459 261.29 139.43V124.954C261.29 124.764 261.366 124.583 261.5 124.449C261.634 124.315 261.816 124.24 262.005 124.24C262.195 124.24 262.376 124.315 262.51 124.449C262.644 124.583 262.72 124.764 262.72 124.954V128.831L290.89 131.391C291.452 131.401 291.989 131.632 292.383 132.033C292.778 132.434 292.999 132.974 293 133.537C293 133.581 292.996 133.625 292.988 133.669L291.568 141.239C291.549 141.795 291.314 142.322 290.914 142.709C290.514 143.095 289.98 143.312 289.424 143.312ZM262.72 130.267V139.43C262.721 140.08 262.98 140.703 263.439 141.163C263.899 141.622 264.522 141.881 265.172 141.882H289.424C289.613 141.881 289.795 141.806 289.929 141.672C290.063 141.538 290.139 141.356 290.139 141.166C290.139 141.122 290.143 141.078 290.151 141.035L291.567 133.482C291.553 133.302 291.472 133.134 291.34 133.012C291.208 132.89 291.034 132.822 290.854 132.822C290.833 132.822 290.811 132.821 290.79 132.819L262.72 130.267Z" fill="#6A86EB"/>
<path d="M258.728 149.988C259.387 149.988 259.92 149.454 259.92 148.796C259.92 148.137 259.387 147.604 258.728 147.604C258.07 147.604 257.536 148.137 257.536 148.796C257.536 149.454 258.07 149.988 258.728 149.988Z" fill="#6A86EB"/>
<path d="M288.47 149.988C289.128 149.988 289.662 149.454 289.662 148.796C289.662 148.137 289.128 147.604 288.47 147.604C287.812 147.604 287.278 148.137 287.278 148.796C287.278 149.454 287.812 149.988 288.47 149.988Z" fill="#6A86EB"/>
<path d="M289.662 147.604H257.775C257.585 147.604 257.403 147.528 257.269 147.394C257.135 147.26 257.059 147.078 257.059 146.888C257.059 146.699 257.135 146.517 257.269 146.383C257.403 146.249 257.585 146.173 257.775 146.173H289.662C289.852 146.173 290.034 146.249 290.168 146.383C290.302 146.517 290.377 146.699 290.377 146.888C290.377 147.078 290.302 147.26 290.168 147.394C290.034 147.528 289.852 147.604 289.662 147.604Z" fill="#6A86EB"/>
<path d="M263.913 125.431H257.714C257.524 125.43 257.343 125.355 257.209 125.22C257.075 125.086 257 124.905 257 124.715C257 124.526 257.075 124.344 257.209 124.21C257.343 124.076 257.524 124 257.714 124H263.913C264.102 124 264.284 124.076 264.417 124.21C264.551 124.344 264.626 124.526 264.626 124.715C264.626 124.905 264.551 125.086 264.417 125.22C264.284 125.355 264.102 125.43 263.913 125.431Z" fill="#6A86EB"/>
<path d="M268.886 147.24C268.715 147.24 268.549 147.178 268.42 147.067L263.718 143.027C263.647 142.966 263.588 142.891 263.546 142.807C263.503 142.723 263.477 142.632 263.47 142.538C263.463 142.444 263.474 142.35 263.504 142.261C263.533 142.171 263.58 142.088 263.641 142.017C263.702 141.946 263.777 141.887 263.861 141.845C263.945 141.802 264.036 141.777 264.13 141.77C264.224 141.763 264.318 141.775 264.408 141.804C264.497 141.833 264.579 141.88 264.651 141.942L269.352 145.982C269.463 146.077 269.542 146.204 269.578 146.345C269.615 146.487 269.607 146.636 269.557 146.773C269.506 146.91 269.414 147.028 269.294 147.112C269.174 147.195 269.032 147.24 268.886 147.24V147.24Z" fill="#6A86EB"/>
<path d="M269.876 142.873C269.782 142.873 269.689 142.854 269.602 142.818C269.516 142.782 269.437 142.73 269.37 142.663C269.304 142.597 269.251 142.518 269.215 142.431C269.179 142.345 269.161 142.252 269.161 142.158V130.676C269.161 130.486 269.236 130.304 269.37 130.17C269.505 130.036 269.686 129.961 269.876 129.961C270.066 129.961 270.248 130.036 270.382 130.17C270.516 130.304 270.591 130.486 270.591 130.676V142.158C270.591 142.251 270.573 142.344 270.537 142.431C270.501 142.518 270.448 142.597 270.382 142.663C270.316 142.73 270.237 142.782 270.15 142.818C270.063 142.854 269.97 142.873 269.876 142.873H269.876Z" fill="#6A86EB"/>
<path d="M284.986 142.873C284.892 142.873 284.799 142.854 284.712 142.818C284.625 142.782 284.546 142.73 284.48 142.663C284.413 142.597 284.361 142.518 284.325 142.431C284.289 142.345 284.27 142.252 284.27 142.158V131.63C284.271 131.44 284.346 131.259 284.48 131.125C284.614 130.991 284.796 130.916 284.986 130.916C285.175 130.916 285.357 130.991 285.491 131.125C285.625 131.259 285.7 131.44 285.701 131.63V142.158C285.701 142.251 285.682 142.344 285.646 142.431C285.61 142.518 285.558 142.597 285.491 142.663C285.425 142.73 285.346 142.782 285.259 142.818C285.173 142.854 285.079 142.873 284.986 142.873Z" fill="#6A86EB"/>
<path d="M128.528 170.294C134.599 170.294 139.521 165.372 139.521 159.301C139.521 153.229 134.599 148.307 128.528 148.307C122.456 148.307 117.534 153.229 117.534 159.301C117.534 165.372 122.456 170.294 128.528 170.294Z" fill="#6A86EB"/>
<path d="M133.114 158.617H129.376V154.88C129.376 154.764 129.354 154.65 129.309 154.543C129.265 154.436 129.2 154.339 129.119 154.258C129.037 154.176 128.94 154.111 128.833 154.067C128.727 154.023 128.612 154 128.497 154C128.381 154 128.267 154.023 128.16 154.067C128.054 154.111 127.957 154.176 127.875 154.258C127.793 154.339 127.728 154.436 127.684 154.543C127.64 154.65 127.617 154.764 127.617 154.88V158.617H123.88C123.764 158.617 123.65 158.64 123.543 158.684C123.436 158.728 123.339 158.793 123.258 158.875C123.176 158.957 123.111 159.054 123.067 159.16C123.023 159.267 123 159.381 123 159.497C123 159.73 123.093 159.954 123.258 160.119C123.423 160.284 123.646 160.376 123.88 160.376H127.617V164.114C127.617 164.23 127.64 164.344 127.684 164.451C127.728 164.557 127.793 164.654 127.875 164.736C127.957 164.818 128.054 164.883 128.16 164.927C128.267 164.971 128.381 164.994 128.497 164.994C128.612 164.994 128.727 164.971 128.833 164.927C128.94 164.883 129.037 164.818 129.119 164.736C129.2 164.654 129.265 164.557 129.309 164.451C129.354 164.344 129.376 164.23 129.376 164.114V160.376H133.114C133.23 160.376 133.344 160.354 133.451 160.309C133.557 160.265 133.654 160.2 133.736 160.119C133.818 160.037 133.883 159.94 133.927 159.833C133.971 159.727 133.994 159.612 133.994 159.497C133.994 159.264 133.901 159.04 133.736 158.875C133.571 158.71 133.347 158.617 133.114 158.617V158.617Z" fill="white"/>
</g>
<defs>
<clipPath id="clip0_6_2318">
<rect width="387" height="284.99" fill="white" transform="translate(0 0.0625916)"/>
</clipPath>
</defs>
</svg>
