<svg width="37" height="37" viewBox="0 0 37 37" fill="none" xmlns="http://www.w3.org/2000/svg">
<path d="M11.5625 6.94032V9.25282H33.5312V13.8305L30.9658 21.9716H10.8349L7.9443 1.15625H1.15625V3.46875H5.9307L8.82132 24.2841H32.6617L35.8438 14.1862V6.94032H11.5625Z" fill="black"/>
<path d="M12.7899 26.6186C11.5637 26.62 10.3881 27.1077 9.52103 27.9748C8.65398 28.8418 8.16625 30.0174 8.16486 31.2436C8.16486 32.4702 8.65213 33.6466 9.51949 34.514C10.3868 35.3813 11.5632 35.8686 12.7899 35.8686C14.0165 35.8686 15.1929 35.3813 16.0602 34.514C16.9276 33.6466 17.4149 32.4702 17.4149 31.2436C17.4135 30.0174 16.9258 28.8418 16.0587 27.9748C15.1916 27.1077 14.0161 26.62 12.7899 26.6186ZM12.7899 33.5561C12.3325 33.5561 11.8854 33.4205 11.5051 33.1664C11.1248 32.9123 10.8284 32.5511 10.6534 32.1286C10.4784 31.706 10.4326 31.2411 10.5218 30.7925C10.611 30.3439 10.8313 29.9318 11.1547 29.6084C11.4781 29.285 11.8901 29.0648 12.3387 28.9756C12.7873 28.8863 13.2523 28.9321 13.6748 29.1072C14.0974 29.2822 14.4585 29.5786 14.7126 29.9589C14.9667 30.3392 15.1024 30.7863 15.1024 31.2436C15.1016 31.8567 14.8578 32.4445 14.4242 32.878C13.9907 33.3115 13.4029 33.5554 12.7899 33.5561Z" fill="black"/>
<path d="M28.9774 26.6186C27.7512 26.62 26.5756 27.1077 25.7085 27.9748C24.8415 28.8418 24.3538 30.0174 24.3524 31.2436C24.3524 32.4702 24.8396 33.6466 25.707 34.514C26.5743 35.3813 27.7507 35.8686 28.9774 35.8686C30.204 35.8686 31.3804 35.3813 32.2477 34.514C33.1151 33.6466 33.6024 32.4702 33.6024 31.2436C33.601 30.0174 33.1133 28.8418 32.2462 27.9748C31.3791 27.1077 30.2036 26.62 28.9774 26.6186ZM28.9774 33.5561C28.52 33.5561 28.0729 33.4205 27.6926 33.1664C27.3123 32.9123 27.0159 32.5511 26.8409 32.1286C26.6659 31.706 26.6201 31.2411 26.7093 30.7925C26.7985 30.3439 27.0188 29.9318 27.3422 29.6084C27.6656 29.285 28.0776 29.0648 28.5262 28.9756C28.9748 28.8863 29.4398 28.9321 29.8623 29.1072C30.2849 29.2822 30.646 29.5786 30.9001 29.9589C31.1542 30.3392 31.2899 30.7863 31.2899 31.2436C31.2891 31.8567 31.0453 32.4445 30.6117 32.878C30.1782 33.3115 29.5904 33.5554 28.9774 33.5561Z" fill="black"/>
</svg>
