<svg width="37" height="37" viewBox="0 0 37 37" fill="none" xmlns="http://www.w3.org/2000/svg">
<path d="M11.7167 15.055H18.5C18.8404 15.055 19.1167 14.7748 19.1167 14.4281C19.1167 14.0813 18.8404 13.8011 18.5 13.8011H11.7167C11.3763 13.8011 11.1 14.0813 11.1 14.4281C11.1 14.7748 11.3763 15.055 11.7167 15.055Z" fill="black"/>
<path d="M21.5833 18.1899H8.63333C8.29293 18.1899 8.01666 18.4702 8.01666 18.8169C8.01666 19.1636 8.29293 19.4439 8.63333 19.4439H21.5833C21.9237 19.4439 22.2 19.1636 22.2 18.8169C22.2 18.4702 21.9237 18.1899 21.5833 18.1899Z" fill="black"/>
<path d="M21.5833 22.5788H8.63333C8.29293 22.5788 8.01666 22.8591 8.01666 23.2058C8.01666 23.5525 8.29293 23.8328 8.63333 23.8328H21.5833C21.9237 23.8328 22.2 23.5525 22.2 23.2058C22.2 22.8591 21.9237 22.5788 21.5833 22.5788Z" fill="black"/>
<path d="M27.8881 0H15.8952C11.9189 0 8.4138 2.64335 7.22363 6.47169C3.10245 7.35887 0 11.0838 0 15.5341V22.6472C0 27.495 3.89302 31.6218 8.63333 31.9547V36.0175C8.63333 36.4414 8.84485 36.7937 9.18463 36.9367C9.28515 36.9787 9.38998 37 9.49482 37C9.72607 37 9.95732 36.9003 10.1423 36.7116L11.0803 35.758C13.4791 33.319 16.7234 31.976 20.2149 31.976H21.1048C25.1742 31.976 28.6269 29.2298 29.7936 25.4535C33.9272 24.4817 37 20.6552 37 16.3767V9.26426C37 4.15563 32.9127 0 27.8881 0ZM21.1048 30.7214H20.2149C16.3935 30.7214 12.8396 32.1954 10.2077 34.8708L9.86667 35.2181V31.3484V30.7214V28.7439C9.86667 28.3972 9.5904 28.1169 9.25 28.1169C8.9096 28.1169 8.63333 28.3972 8.63333 28.7439V30.6888C4.56333 30.359 1.23333 26.8147 1.23333 22.6465V15.5341C1.23333 11.6863 3.91645 8.46549 7.47955 7.69869L7.80022 7.64415C8.02777 7.60527 8.24422 7.57706 8.45388 7.55762C8.62593 7.5432 8.79922 7.5338 8.97435 7.53066C9.01937 7.53004 9.06747 7.52439 9.11187 7.52439H21.1048C25.4492 7.52377 28.9833 11.1176 28.9833 15.5341V22.6472C28.9833 22.8741 28.9679 23.0973 28.95 23.3193C28.9408 23.4265 28.9309 23.5331 28.9174 23.6409C28.9093 23.7093 28.897 23.7757 28.8871 23.8428C28.8403 24.1494 28.7792 24.4573 28.6966 24.7651L28.6022 25.1193C27.5804 28.3652 24.6075 30.7214 21.1048 30.7214ZM35.7667 16.3767C35.7667 19.8753 33.3894 23.0321 30.102 24.0792C30.11 24.0297 30.1124 23.9801 30.1199 23.9306C30.1414 23.7726 30.163 23.6152 30.1766 23.4547C30.2013 23.1845 30.2167 22.9143 30.2167 22.6465V15.5341C30.2167 14.8958 30.1525 14.272 30.0311 13.6694C29.1801 9.45173 25.501 6.2698 21.1048 6.2698H9.11187C9.10015 6.2698 9.08905 6.27169 9.07672 6.27169C8.91638 6.27231 8.7542 6.2767 8.58832 6.28799C9.77047 3.28224 12.6546 1.25459 15.8952 1.25459H27.8881C32.2326 1.25396 35.7667 4.84781 35.7667 9.26426V16.3767Z" fill="black"/>
</svg>
