<svg width="37" height="37" viewBox="0 0 37 37" fill="none" xmlns="http://www.w3.org/2000/svg">
<path d="M26.5613 0.841309C23.4116 0.841309 20.4631 2.26739 18.5 4.65678C16.5369 2.26731 13.5885 0.841309 10.4387 0.841309C4.68282 0.841309 0 5.52405 0 11.28C0 15.7872 2.68758 21.0005 7.98793 26.775C12.067 31.2188 16.5043 34.6595 17.7671 35.6083L18.4998 36.1587L19.2324 35.6084C20.4952 34.6596 24.9327 31.219 29.0118 26.7751C34.3123 21.0006 37 15.7873 37 11.28C37 5.52405 32.3172 0.841309 26.5613 0.841309ZM27.2146 25.1253C23.8595 28.7805 20.2498 31.7352 18.4998 33.0969C16.7498 31.7352 13.1403 28.7804 9.78516 25.1253C4.97963 19.8899 2.43956 15.1022 2.43956 11.28C2.43956 6.8693 6.02799 3.28087 10.4387 3.28087C13.3413 3.28087 16.0214 4.86284 17.4332 7.4095L18.5 9.33399L19.5668 7.4095C20.9785 4.86292 23.6586 3.28087 26.5613 3.28087C30.972 3.28087 34.5604 6.86922 34.5604 11.28C34.5604 15.1024 32.0203 19.89 27.2146 25.1253Z" fill="black"/>
</svg>
