<svg width="37" height="37" viewBox="0 0 37 37" fill="none" xmlns="http://www.w3.org/2000/svg">
<g clip-path="url(#clip0_3_72)">
<path d="M18.5 0C12.3697 0 7.39996 6.21231 7.39996 13.875C7.39996 21.5377 12.3697 27.75 18.5 27.75C24.6303 27.75 29.6 21.5377 29.6 13.875C29.6 6.21231 24.6303 0 18.5 0ZM18.5 25.9C13.3995 25.9 9.24996 20.5054 9.24996 13.875C9.24996 7.24463 13.3995 1.85 18.5 1.85C23.6004 1.85 27.75 7.24463 27.75 13.875C27.75 20.5054 23.6004 25.9 18.5 25.9Z" fill="#0D0F17"/>
<path d="M26.5802 26.1429C26.0838 26.6258 25.5553 27.0599 25.0033 27.4509C26.7657 28.2698 28.3117 28.9506 29.632 29.5272C34.5314 31.6652 35.1499 32.0882 35.1499 33.3C35.1499 34.1381 34.3248 35.15 33.2999 35.15H3.7C2.67513 35.15 1.85 34.1381 1.85 33.3C1.85 32.0882 2.46852 31.6652 7.36734 29.5272C8.68821 28.9506 10.2342 28.2699 11.996 27.4509C11.4441 27.0599 10.9157 26.6258 10.4192 26.1429C2.71704 29.6678 0 30.1402 0 33.3C0 35.15 1.6564 37 3.7 37H33.3C35.3436 37 37 35.15 37 33.3C37 30.1402 34.283 29.6678 26.5802 26.1429Z" fill="#0D0F17"/>
</g>
<defs>
<clipPath id="clip0_3_72">
<rect width="37" height="37" fill="white"/>
</clipPath>
</defs>
</svg>
